<svg xmlns="http://www.w3.org/2000/svg" xmlns:xlink="http://www.w3.org/1999/xlink" width="1080" zoomAndPan="magnify" viewBox="0 0 810 809.999993" height="1080" preserveAspectRatio="xMidYMid meet" version="1.0"><path fill="#f6f6f6" d="M 617.363281 2.972656 C 617.363281 4.324219 623.847656 9.457031 631.679688 14.050781 C 639.246094 18.914062 655.1875 29.988281 666.804688 38.90625 C 691.121094 57.546875 694.632812 54.304688 672.207031 33.230469 L 656.539062 18.914062 L 675.179688 28.910156 C 685.445312 34.582031 696.253906 41.066406 698.957031 43.5 C 716.789062 57.820312 731.105469 74.570312 740.5625 91.050781 C 750.558594 109.152344 751.101562 111.042969 751.101562 134.28125 L 751.101562 158.597656 L 713.546875 245.054688 C 693.011719 292.605469 674.640625 335.023438 672.476562 339.617188 C 670.585938 343.9375 660.859375 365.824219 651.402344 388.25 L 633.84375 428.777344 L 611.417969 427.695312 C 598.988281 427.15625 588.183594 425.535156 587.101562 423.914062 C 586.289062 422.292969 587.640625 417.96875 590.613281 414.457031 C 593.316406 410.671875 595.746094 405.8125 595.746094 403.378906 C 595.746094 400.949219 597.636719 396.625 599.800781 393.921875 C 601.960938 390.949219 603.851562 386.359375 603.851562 383.386719 C 603.851562 380.683594 606.285156 375.28125 609.257812 371.496094 C 612.226562 367.714844 614.660156 362.582031 614.660156 360.148438 C 614.660156 357.449219 616.550781 353.125 618.710938 350.152344 C 620.875 347.453125 622.765625 342.589844 622.765625 339.886719 C 622.765625 336.914062 624.65625 332.320312 627.089844 329.890625 C 629.519531 327.1875 631.949219 321.785156 632.222656 318.003906 C 632.761719 314.488281 635.191406 309.355469 637.625 306.925781 C 640.054688 304.222656 641.675781 299.628906 641.136719 296.386719 C 640.328125 292.605469 641.675781 289.363281 644.917969 287.203125 C 647.621094 285.582031 649.78125 281.257812 649.78125 277.746094 C 649.78125 274.234375 651.675781 269.910156 653.835938 268.019531 C 655.996094 266.128906 657.886719 262.34375 657.886719 259.371094 C 657.886719 256.402344 660.320312 250.996094 663.292969 247.214844 C 666.265625 243.433594 668.695312 237.757812 668.695312 234.515625 C 668.695312 231.542969 670.585938 226.410156 672.75 223.710938 C 674.910156 220.738281 676.800781 216.414062 676.800781 213.710938 C 676.800781 211.28125 678.421875 207.769531 680.582031 206.148438 C 682.746094 204.257812 685.175781 199.664062 685.988281 195.609375 C 687.609375 188.585938 692.472656 177.507812 700.308594 162.109375 C 702.199219 158.324219 703.820312 152.652344 703.820312 149.679688 C 703.820312 146.707031 705.710938 142.925781 708.140625 140.765625 C 710.84375 138.601562 711.925781 134.550781 711.382812 129.6875 C 710.574219 125.363281 711.652344 120.769531 713.816406 119.148438 C 718.136719 115.367188 718.410156 107.53125 714.085938 99.695312 C 712.464844 96.453125 711.113281 89.96875 711.382812 85.648438 C 711.652344 81.054688 710.304688 75.652344 708.414062 73.21875 C 702.738281 65.925781 678.691406 52.414062 644.378906 37.015625 C 614.121094 23.503906 611.6875 22.964844 609.257812 27.558594 C 605.742188 34.042969 605.742188 35.664062 609.257812 35.664062 C 610.878906 35.664062 631.949219 44.308594 656.265625 54.847656 C 691.390625 69.976562 701.117188 75.378906 703.550781 80.785156 C 705.441406 84.566406 706.25 88.078125 705.980469 88.347656 C 705.441406 88.890625 682.203125 79.164062 653.835938 66.734375 C 606.015625 45.929688 602.230469 44.851562 600.070312 49.441406 C 598.71875 52.414062 598.179688 55.117188 598.71875 55.386719 C 599.257812 55.925781 623.574219 66.464844 652.484375 78.894531 C 681.394531 91.320312 706.25 102.398438 707.332031 103.480469 C 708.683594 104.289062 709.222656 107.800781 708.683594 110.773438 C 707.871094 115.90625 703.820312 114.554688 655.1875 93.480469 C 626.277344 81.054688 600.339844 69.707031 597.910156 68.085938 C 594.125 65.925781 592.503906 66.734375 590.074219 71.058594 C 588.453125 74.03125 587.640625 77 588.183594 77.273438 C 588.722656 77.542969 613.847656 88.617188 644.378906 101.585938 C 708.414062 128.605469 707.332031 128.066406 705.171875 133.46875 C 703.820312 136.980469 698.6875 135.628906 674.640625 124.824219 C 596.015625 90.238281 584.667969 85.917969 581.96875 89.96875 C 580.617188 92.132812 579.535156 94.292969 579.535156 95.101562 C 579.535156 95.914062 606.285156 108.070312 638.976562 122.121094 C 671.667969 136.171875 698.414062 148.328125 698.414062 149.140625 C 698.414062 149.949219 697.335938 152.113281 695.984375 154.273438 C 694.09375 157.246094 681.933594 152.921875 633.84375 132.117188 C 578.726562 108.34375 574.132812 106.722656 572.511719 111.855469 C 571.699219 114.828125 571.429688 117.527344 571.972656 117.796875 C 572.242188 118.339844 598.988281 129.957031 630.871094 143.734375 C 662.75 157.246094 689.230469 168.863281 689.769531 169.402344 C 691.121094 170.753906 686.796875 178.859375 684.636719 178.859375 C 682.203125 178.859375 588.453125 139.144531 573.320312 131.578125 C 566.566406 128.335938 565.757812 128.335938 563.054688 133.46875 C 561.433594 136.441406 560.625 139.144531 561.164062 139.414062 C 561.703125 139.953125 588.183594 151.300781 620.0625 164.808594 C 651.945312 178.320312 678.421875 190.476562 678.691406 191.558594 C 679.234375 192.636719 678.421875 195.339844 677.070312 197.5 C 674.910156 200.742188 663.5625 196.691406 614.929688 175.617188 C 581.96875 161.566406 555.21875 150.761719 555.21875 152.113281 C 555.21875 153.191406 554.679688 155.894531 553.867188 157.785156 C 552.789062 160.488281 568.730469 168.59375 611.957031 186.964844 C 644.648438 201.015625 671.398438 213.171875 671.398438 213.984375 C 671.398438 214.792969 670.316406 216.953125 668.964844 219.117188 C 666.804688 222.359375 655.457031 218.304688 606.824219 197.230469 C 550.355469 172.644531 546.84375 171.5625 544.144531 176.425781 C 541.710938 181.019531 542.792969 182.371094 553.058594 186.695312 C 559.542969 189.394531 586.5625 201.015625 613.308594 212.632812 C 640.054688 223.980469 662.210938 233.707031 662.480469 233.976562 C 663.023438 234.515625 661.671875 236.679688 659.78125 239.378906 C 656.539062 243.972656 653.023438 242.890625 607.636719 223.4375 C 581.15625 211.820312 554.410156 200.203125 548.734375 197.5 C 542.792969 194.800781 537.929688 192.636719 537.660156 193.179688 C 537.117188 193.449219 536.308594 196.152344 535.496094 199.121094 C 533.875 203.984375 540.359375 207.226562 593.046875 229.921875 C 625.738281 243.972656 652.484375 256.128906 652.484375 257.480469 C 652.484375 258.5625 651.402344 260.453125 649.78125 261.265625 C 647.890625 262.34375 603.042969 243.972656 531.984375 212.363281 C 529.554688 211.28125 524.148438 222.089844 526.3125 223.4375 C 526.582031 223.710938 553.058594 235.058594 584.941406 248.566406 C 616.820312 262.074219 643.296875 274.234375 643.570312 275.3125 C 644.109375 276.394531 643.296875 279.097656 641.949219 280.988281 C 639.785156 284.5 634.652344 282.339844 523.878906 233.976562 C 520.097656 232.355469 516.3125 241 519.285156 243.972656 C 520.367188 245.054688 547.113281 257.210938 578.183594 270.449219 C 631.679688 293.6875 637.625 297.46875 631.140625 303.953125 C 630.058594 305.035156 602.773438 294.226562 570.078125 280.175781 C 537.660156 266.128906 510.910156 254.78125 510.371094 255.050781 C 510.101562 255.589844 509.289062 258.023438 508.75 260.992188 C 508.207031 265.046875 517.394531 270.179688 566.027344 290.984375 C 597.910156 304.761719 624.386719 317.191406 624.65625 318.273438 C 624.925781 319.625 624.386719 322.324219 623.035156 324.214844 C 621.414062 326.917969 607.363281 322.054688 561.703125 302.332031 C 506.585938 278.554688 502.265625 276.933594 500.101562 281.796875 C 498.753906 284.769531 498.210938 287.472656 498.753906 287.742188 C 499.292969 288.28125 525.5 299.628906 556.570312 312.597656 C 587.910156 325.835938 614.121094 337.453125 615.46875 338.265625 C 616.550781 339.074219 615.742188 341.777344 614.121094 344.210938 C 610.878906 347.992188 604.394531 345.832031 552.519531 323.40625 C 499.832031 300.710938 494.160156 298.820312 490.917969 302.601562 C 487.675781 306.65625 489.835938 308.277344 508.480469 316.921875 C 520.097656 322.054688 546.84375 333.671875 567.917969 342.589844 C 588.992188 351.234375 606.285156 359.609375 606.554688 361.230469 C 606.554688 371.769531 601.152344 370.417969 543.0625 345.019531 C 499.5625 326.109375 483.351562 320.164062 481.730469 322.867188 C 480.648438 324.488281 480.109375 327.1875 480.378906 328.539062 C 480.921875 329.890625 507.398438 342.316406 539.28125 356.097656 C 571.160156 369.875 596.828125 382.035156 596.558594 382.84375 C 593.855469 392.03125 601.152344 394.191406 523.609375 360.421875 C 477.949219 340.425781 474.164062 339.347656 472.542969 344.210938 C 471.734375 347.179688 471.464844 349.882812 472.003906 350.152344 C 472.273438 350.695312 499.023438 362.3125 530.902344 376.089844 C 562.785156 389.871094 589.261719 401.21875 589.53125 401.757812 C 590.074219 402.027344 588.722656 404.191406 586.832031 406.621094 C 583.859375 410.945312 578.457031 409.054688 524.960938 385.816406 C 470.113281 362.042969 465.789062 360.691406 463.359375 365.285156 C 461.738281 367.984375 461.46875 370.957031 462.546875 371.496094 C 463.898438 372.039062 489.566406 383.386719 520.097656 396.355469 C 550.625 409.324219 576.5625 421.210938 577.914062 422.292969 C 579.535156 423.914062 579.535156 425.804688 577.644531 427.695312 C 575.484375 429.855469 561.433594 424.992188 526.582031 409.863281 C 499.832031 398.246094 473.625 386.628906 467.953125 384.195312 C 458.226562 379.332031 457.957031 379.332031 454.984375 384.738281 C 453.363281 387.707031 452.550781 390.410156 453.09375 390.679688 C 453.632812 390.949219 479.839844 402.296875 511.449219 415.808594 C 565.214844 439.042969 569.539062 440.394531 578.996094 437.691406 C 588.453125 434.988281 620.875 436.070312 632.222656 439.3125 C 637.085938 440.933594 643.570312 427.425781 697.066406 302.871094 C 729.757812 226.953125 757.855469 159.136719 759.476562 152.113281 C 771.363281 99.964844 718.949219 30.53125 651.402344 8.914062 C 630.328125 2.160156 617.363281 0 617.363281 2.972656 Z M 617.363281 2.972656 " fill-opacity="1" fill-rule="nonzero"/><path fill="#f6f6f6" d="M 508.75 12.699219 C 504.964844 21.882812 444.988281 153.191406 412.292969 223.4375 C 406.890625 235.328125 395.003906 260.992188 386.359375 280.71875 C 377.441406 300.441406 369.335938 316.109375 368.253906 315.839844 C 366.632812 315.300781 252.617188 175.347656 183.992188 89.429688 C 168.863281 70.515625 156.433594 55.386719 156.164062 55.65625 C 155.625 55.925781 157.785156 64.84375 160.757812 75.378906 C 177.238281 134.820312 238.027344 237.488281 323.675781 351.234375 L 342.589844 376.089844 L 313.410156 440.394531 C 297.199219 475.515625 283.6875 504.964844 283.148438 505.507812 C 282.878906 506.046875 278.554688 502.804688 273.960938 498.210938 C 259.914062 484.433594 243.160156 477.949219 218.035156 476.597656 C 192.367188 475.246094 178.320312 478.21875 152.382812 491.1875 C 63.492188 535.226562 38.636719 659.238281 109.964844 702.199219 C 168.320312 737.589844 259.371094 696.792969 291.792969 621.144531 C 295.035156 613.308594 309.894531 581.96875 325.027344 551.4375 C 340.15625 520.636719 358.527344 481.730469 366.09375 464.980469 C 373.660156 447.957031 380.953125 433.097656 382.035156 432.019531 C 383.117188 430.9375 390.140625 437.691406 397.433594 446.878906 C 413.105469 466.871094 500.101562 571.429688 509.558594 581.699219 C 513.070312 585.480469 520.90625 598.179688 526.582031 609.796875 C 554.140625 664.644531 614.390625 699.226562 668.695312 691.660156 C 697.875 687.878906 722.460938 670.316406 735.160156 644.921875 C 743.535156 627.359375 746.777344 595.476562 741.914062 573.320312 C 734.347656 538.199219 706.519531 498.210938 675.179688 477.410156 C 620.875 441.203125 553.328125 447.6875 525.769531 491.1875 L 517.933594 503.074219 L 492.539062 471.464844 C 478.488281 453.902344 453.902344 423.640625 437.960938 403.917969 L 409.050781 368.253906 L 419.050781 344.480469 C 482.269531 192.910156 516.585938 76.460938 514.152344 20.804688 L 513.34375 1.890625 Z M 501.183594 73.21875 C 498.210938 92.671875 490.105469 126.175781 484.972656 141.035156 C 483.621094 144.816406 479.570312 158.597656 475.515625 172.105469 C 466.871094 200.742188 439.582031 274.773438 418.777344 325.027344 C 410.671875 344.75 403.917969 363.933594 403.917969 367.445312 C 403.917969 371.226562 408.511719 379.875 413.914062 386.628906 C 419.589844 393.382812 425.535156 400.949219 427.425781 403.109375 C 429.046875 405.269531 440.125 418.777344 451.742188 433.097656 C 463.359375 447.417969 478.757812 466.871094 486.054688 476.058594 C 493.347656 485.242188 503.617188 497.132812 508.75 502.535156 L 518.207031 512.261719 L 523.878906 504.695312 C 544.683594 477.410156 564.136719 465.519531 591.695312 463.359375 C 651.132812 458.496094 713.273438 504.15625 732.1875 567.109375 C 737.589844 584.667969 737.050781 617.363281 731.378906 633.300781 C 725.164062 650.863281 710.035156 667.886719 694.09375 675.71875 C 665.453125 690.039062 617.632812 685.175781 586.289062 664.644531 C 564.675781 650.59375 542.523438 626.007812 532.253906 604.394531 C 527.121094 593.855469 520.367188 581.96875 517.125 578.457031 C 514.152344 574.941406 508.207031 568.1875 504.425781 563.867188 C 487.132812 544.414062 451.199219 501.722656 424.183594 467.953125 C 397.164062 434.449219 386.085938 422.019531 383.117188 422.019531 C 379.332031 422.019531 372.578125 433.367188 359.339844 461.199219 C 351.234375 478.488281 344.480469 493.347656 344.480469 493.890625 C 344.480469 494.429688 331.511719 521.449219 315.570312 553.871094 C 299.359375 586.289062 282.878906 620.332031 278.824219 629.519531 C 259.371094 671.398438 206.957031 705.710938 161.027344 706.25 C 125.363281 706.519531 99.425781 692.472656 84.566406 664.644531 C 79.164062 654.375 78.351562 649.242188 78.351562 620.605469 C 78.351562 588.722656 78.621094 587.910156 88.617188 567.378906 C 113.476562 516.3125 169.402344 480.921875 219.117188 484.972656 C 237.757812 486.324219 260.992188 495.78125 272.613281 506.585938 C 276.933594 510.640625 281.257812 513.882812 282.339844 513.882812 C 286.121094 513.882812 292.335938 504.15625 301.25 484.164062 C 306.113281 473.085938 315.03125 453.632812 320.972656 440.933594 C 347.179688 384.195312 349.613281 378.523438 347.992188 373.929688 C 346.910156 371.496094 337.453125 357.71875 326.917969 343.667969 C 260.992188 255.859375 192.910156 145.355469 178.589844 103.207031 L 174.265625 91.050781 L 179.941406 97.804688 C 182.910156 101.585938 188.855469 108.070312 192.910156 112.664062 C 196.960938 116.988281 206.6875 129.144531 214.792969 139.683594 C 235.054688 166.160156 274.234375 214.523438 280.175781 220.195312 C 282.878906 222.898438 285.039062 225.871094 285.039062 226.953125 C 285.039062 228.03125 289.09375 233.164062 293.957031 238.300781 C 301.792969 246.675781 313.949219 261.535156 333.941406 287.203125 C 366.363281 328.808594 366.90625 329.078125 374.738281 319.894531 C 376.902344 317.460938 391.492188 287.203125 407.160156 253.160156 C 488.214844 75.921875 502.265625 45.929688 503.34375 49.171875 C 504.15625 51.0625 503.074219 61.871094 501.183594 73.21875 Z M 501.183594 73.21875 " fill-opacity="1" fill-rule="nonzero"/><path fill="#f6f6f6" d="M 363.664062 364.203125 C 356.367188 373.390625 356.636719 380.953125 364.203125 390.140625 C 373.660156 401.488281 380.953125 402.027344 390.410156 392.570312 C 400.40625 382.574219 401.21875 371.496094 392.300781 363.121094 C 383.386719 354.746094 370.6875 355.285156 363.664062 364.203125 Z M 390.140625 370.957031 C 397.164062 382.574219 378.792969 395.8125 369.335938 386.359375 C 364.203125 381.222656 365.554688 371.496094 371.769531 367.175781 C 378.523438 362.3125 385.546875 363.933594 390.140625 370.957031 Z M 390.140625 370.957031 " fill-opacity="1" fill-rule="nonzero"/><path fill="#f6f6f6" d="M 604.394531 501.996094 C 600.878906 505.777344 571.429688 570.890625 567.648438 583.320312 C 565.214844 590.882812 580.886719 615.46875 595.476562 627.089844 C 631.410156 655.726562 672.476562 657.886719 690.851562 632.222656 C 695.984375 624.925781 697.335938 618.984375 697.875 601.152344 C 698.957031 581.15625 698.144531 577.644531 690.851562 561.976562 C 686.257812 552.789062 676.53125 538.738281 669.507812 531.175781 C 646.8125 507.9375 612.769531 492.539062 604.394531 501.996094 Z M 636.003906 514.691406 C 663.5625 527.390625 689.5 564.675781 692.203125 594.9375 C 693.824219 613.308594 686.527344 630.332031 674.097656 636.816406 C 653.296875 647.621094 616.550781 636.816406 593.046875 613.039062 C 571.429688 591.425781 571.429688 592.773438 588.992188 551.4375 C 597.636719 531.445312 605.472656 513.070312 607.09375 510.371094 C 609.796875 504.964844 617.089844 506.046875 636.003906 514.691406 Z M 636.003906 514.691406 " fill-opacity="1" fill-rule="nonzero"/><path fill="#f6f6f6" d="M 190.476562 521.71875 C 151.03125 533.875 115.097656 578.183594 112.664062 617.902344 C 111.3125 636.273438 115.367188 647.351562 128.066406 660.320312 C 154.8125 688.417969 216.414062 664.644531 243.972656 615.742188 C 252.347656 601.152344 263.425781 568.730469 263.425781 559.003906 C 263.425781 552.25 246.402344 531.175781 235.328125 524.417969 C 226.679688 519.015625 203.714844 517.664062 190.476562 521.71875 Z M 230.734375 531.445312 C 235.054688 533.605469 242.890625 540.359375 248.023438 546.304688 L 257.480469 557.382812 L 250.726562 579.535156 C 246.945312 591.695312 241.269531 606.554688 237.757812 612.5 C 228.84375 627.898438 206.417969 648.164062 189.667969 655.726562 C 171.023438 664.644531 145.898438 665.183594 135.359375 656.808594 C 99.964844 628.980469 130.496094 554.410156 186.425781 531.984375 C 200.203125 526.582031 221.007812 526.3125 230.734375 531.445312 Z M 230.734375 531.445312 " fill-opacity="1" fill-rule="nonzero"/><path fill="#f6f6f6" d="M 463.359375 407.703125 C 463.628906 414.996094 481.460938 427.695312 508.75 439.3125 C 535.765625 451.199219 539.550781 452.28125 546.304688 449.308594 C 553.058594 446.066406 551.976562 445.257812 514.421875 429.046875 C 493.078125 419.859375 472.816406 410.671875 469.574219 408.78125 C 466.0625 407.160156 463.359375 406.621094 463.359375 407.703125 Z M 463.359375 407.703125 " fill-opacity="1" fill-rule="nonzero"/><path fill="#f6f6f6" d="M 504.695312 458.765625 C 517.394531 470.925781 517.933594 471.195312 523.070312 466.332031 C 528.472656 461.46875 528.203125 461.46875 511.722656 453.902344 C 502.535156 449.851562 494.429688 446.335938 493.347656 446.335938 C 492.539062 446.335938 497.671875 452.011719 504.695312 458.765625 Z M 504.695312 458.765625 " fill-opacity="1" fill-rule="nonzero"/><path fill="#f6f6f6" d="M 408.511719 491.457031 C 404.730469 495.238281 406.890625 499.292969 414.726562 502.265625 L 422.5625 505.238281 L 416.886719 497.402344 C 410.132812 488.484375 410.945312 489.027344 408.511719 491.457031 Z M 408.511719 491.457031 " fill-opacity="1" fill-rule="nonzero"/><path fill="#f6f6f6" d="M 400.40625 511.449219 C 399.324219 515.773438 400.945312 517.933594 408.242188 520.90625 C 413.375 523.070312 424.453125 527.933594 432.828125 531.445312 C 441.203125 535.226562 448.230469 537.929688 448.769531 537.660156 C 451.199219 534.957031 431.746094 518.746094 418.777344 512.800781 C 410.132812 509.019531 402.839844 505.777344 402.566406 505.777344 C 402.296875 505.777344 401.21875 508.207031 400.40625 511.449219 Z M 400.40625 511.449219 " fill-opacity="1" fill-rule="nonzero"/><path fill="#f6f6f6" d="M 392.839844 530.09375 C 392.570312 531.445312 392.300781 534.144531 392.03125 535.496094 C 391.761719 538.199219 482.269531 579.535156 484.164062 577.914062 C 484.433594 577.375 480.378906 572.511719 474.707031 567.378906 C 467.953125 560.625 453.363281 552.519531 429.855469 542.523438 C 390.410156 525.5 393.382812 526.582031 392.839844 530.09375 Z M 392.839844 530.09375 " fill-opacity="1" fill-rule="nonzero"/><path fill="#f6f6f6" d="M 381.496094 554.410156 C 380.414062 558.734375 382.304688 560.894531 391.21875 564.675781 C 397.433594 567.378906 424.183594 578.457031 450.390625 589.53125 C 476.867188 600.609375 498.210938 610.878906 498.480469 612.5 C 498.480469 623.035156 493.078125 621.683594 434.988281 596.289062 C 392.03125 577.914062 375.28125 571.699219 373.660156 574.132812 C 372.578125 576.023438 372.039062 578.457031 372.308594 579.804688 C 373.117188 581.96875 442.554688 613.308594 480.378906 628.710938 C 489.027344 632.222656 490.105469 633.574219 487.945312 637.894531 C 485.242188 642.488281 481.191406 641.136719 426.34375 617.632812 C 393.921875 603.582031 366.632812 592.234375 365.824219 592.234375 C 364.742188 592.234375 363.390625 594.394531 362.851562 597.097656 C 361.5 602.230469 367.984375 605.472656 451.742188 641.136719 C 467.140625 647.621094 479.570312 654.105469 479.570312 655.726562 C 479.570312 665.992188 473.894531 664.371094 416.078125 639.246094 C 370.957031 619.523438 356.636719 614.390625 355.015625 617.089844 C 353.664062 618.984375 352.855469 621.683594 353.394531 622.765625 C 353.9375 624.925781 414.1875 651.675781 453.363281 667.34375 C 472.542969 674.910156 472.816406 675.179688 469.03125 681.125 C 467.140625 683.824219 454.171875 679.234375 407.703125 658.96875 C 352.585938 635.195312 348.261719 633.574219 346.101562 638.4375 C 344.75 641.40625 344.210938 644.109375 344.75 644.378906 C 345.289062 644.921875 372.039062 656.539062 404.1875 670.316406 C 454.714844 691.929688 462.546875 696.253906 461.46875 700.578125 C 460.65625 703.277344 459.578125 705.710938 459.304688 705.710938 C 458.765625 705.710938 431.476562 694.09375 398.246094 680.042969 C 365.285156 665.722656 337.996094 654.644531 337.726562 654.917969 C 337.183594 655.457031 336.375 657.886719 335.832031 660.589844 C 335.292969 664.644531 345.019531 669.777344 393.652344 690.308594 C 426.074219 704.089844 452.550781 716.246094 452.550781 717.867188 C 452.550781 728.40625 447.148438 727.054688 389.058594 701.65625 C 345.558594 682.746094 329.347656 676.800781 327.726562 679.503906 C 326.648438 681.125 326.105469 683.824219 326.378906 685.175781 C 326.917969 686.527344 353.394531 698.957031 385.277344 712.734375 C 439.851562 736.511719 445.796875 740.292969 439.582031 746.777344 C 438.503906 747.859375 411.484375 737.320312 379.601562 723.273438 C 327.726562 700.847656 321.242188 698.6875 318 702.46875 C 316.378906 704.898438 315.570312 707.601562 316.652344 708.414062 C 318 709.492188 343.667969 720.839844 374.199219 733.808594 C 404.730469 747.046875 430.125 758.125 430.667969 758.664062 C 431.476562 759.476562 430.125 761.636719 427.964844 763.800781 C 424.453125 767.3125 417.15625 764.878906 367.714844 743.265625 C 324.214844 724.625 310.707031 719.761719 309.085938 722.460938 C 307.734375 724.351562 307.195312 727.054688 307.464844 728.40625 C 308.003906 729.488281 331.511719 740.5625 360.148438 752.722656 C 410.945312 774.066406 412.023438 774.605469 404.1875 777.847656 C 396.625 781.089844 392.839844 780.011719 352.042969 762.179688 C 327.726562 751.640625 306.652344 742.453125 304.761719 741.644531 C 303.140625 741.105469 300.441406 742.726562 298.820312 745.695312 C 296.386719 750.558594 298.550781 752.179688 325.027344 763.257812 C 340.96875 770.285156 357.449219 777.039062 361.769531 778.660156 C 366.09375 780.28125 369.066406 782.171875 368.253906 782.710938 C 366.632812 784.601562 322.863281 776.769531 303.140625 771.363281 C 274.503906 763.527344 280.988281 772.984375 316.109375 790.816406 C 326.648438 795.949219 342.316406 802.164062 351.234375 804.328125 C 366.632812 808.109375 398.246094 810 395.273438 806.757812 C 394.191406 805.949219 383.386719 802.976562 370.957031 800.273438 C 348.800781 795.410156 324.214844 787.304688 329.890625 787.035156 C 331.511719 786.765625 339.347656 788.117188 347.453125 789.464844 C 360.421875 791.898438 362.851562 791.628906 369.335938 786.765625 C 376.359375 781.632812 377.441406 781.359375 385.277344 785.414062 C 395.8125 791.085938 407.972656 788.386719 413.644531 779.738281 C 416.078125 776.226562 419.050781 773.796875 420.128906 774.605469 C 421.480469 775.417969 424.183594 775.148438 426.34375 774.335938 C 431.746094 772.445312 449.851562 744.886719 449.851562 738.941406 C 449.851562 736.511719 452.011719 732.1875 454.441406 729.488281 C 456.875 726.785156 459.035156 722.460938 459.304688 719.761719 C 459.304688 717.058594 461.738281 711.925781 464.167969 708.414062 C 466.601562 704.628906 468.761719 699.226562 468.761719 695.984375 C 468.761719 692.742188 470.652344 688.6875 472.816406 686.796875 C 474.976562 684.90625 476.867188 681.125 476.867188 678.152344 C 476.867188 675.449219 479.570312 669.507812 482.542969 665.183594 C 485.785156 660.859375 487.675781 655.726562 486.863281 653.566406 C 486.054688 651.132812 486.863281 648.703125 489.027344 647.890625 C 491.1875 647.082031 493.617188 642.21875 494.429688 637.085938 C 497.941406 619.523438 502.265625 620.0625 514.964844 639.515625 C 521.449219 649.242188 527.660156 657.078125 528.742188 657.078125 C 529.824219 657.078125 530.902344 659.238281 530.902344 661.671875 C 530.902344 666.265625 503.617188 733.539062 493.347656 753.800781 C 481.191406 778.390625 462.007812 791.359375 422.019531 801.894531 L 397.164062 808.378906 L 419.320312 807.296875 C 444.988281 805.949219 464.441406 798.382812 481.460938 783.253906 C 493.347656 772.175781 496.589844 766.5 522.527344 706.25 L 541.441406 662.210938 L 529.554688 646.8125 C 523.070312 638.4375 514.152344 624.117188 509.828125 615.46875 L 501.996094 599.53125 L 443.367188 574.132812 C 411.214844 560.355469 384.464844 549.007812 383.925781 549.007812 C 383.386719 549.007812 382.304688 551.4375 381.496094 554.410156 Z M 381.496094 554.410156 " fill-opacity="1" fill-rule="nonzero"/></svg>