<svg xmlns="http://www.w3.org/2000/svg" xmlns:xlink="http://www.w3.org/1999/xlink" width="1080" zoomAndPan="magnify" viewBox="0 0 810 809.999993" height="1080" preserveAspectRatio="xMidYMid meet" version="1.0"><defs><clipPath id="2df145bd08"><path d="M 180 424 L 643 424 L 643 686 L 180 686 Z M 180 424 " clip-rule="nonzero"/></clipPath><clipPath id="2d71f6bc9c"><path d="M 158.015625 37.855469 L 771.875 157.960938 L 651.765625 771.824219 L 37.90625 651.714844 Z M 158.015625 37.855469 " clip-rule="nonzero"/></clipPath><clipPath id="31245cb6c5"><path d="M 158.015625 37.855469 L 771.875 157.960938 L 651.765625 771.824219 L 37.90625 651.714844 Z M 158.015625 37.855469 " clip-rule="nonzero"/></clipPath><clipPath id="e7fe01451d"><path d="M 500 687 L 660 687 L 660 770 L 500 770 Z M 500 687 " clip-rule="nonzero"/></clipPath><clipPath id="e1fd89f7fb"><path d="M 158.015625 37.855469 L 771.875 157.960938 L 651.765625 771.824219 L 37.90625 651.714844 Z M 158.015625 37.855469 " clip-rule="nonzero"/></clipPath><clipPath id="e89034a080"><path d="M 158.015625 37.855469 L 771.875 157.960938 L 651.765625 771.824219 L 37.90625 651.714844 Z M 158.015625 37.855469 " clip-rule="nonzero"/></clipPath><clipPath id="a36aa7e16a"><path d="M 244 415 L 422 415 L 422 466 L 244 466 Z M 244 415 " clip-rule="nonzero"/></clipPath><clipPath id="e4498eebfe"><path d="M 158.015625 37.855469 L 771.875 157.960938 L 651.765625 771.824219 L 37.90625 651.714844 Z M 158.015625 37.855469 " clip-rule="nonzero"/></clipPath><clipPath id="d8eb299f2a"><path d="M 158.015625 37.855469 L 771.875 157.960938 L 651.765625 771.824219 L 37.90625 651.714844 Z M 158.015625 37.855469 " clip-rule="nonzero"/></clipPath><clipPath id="1a4fa12a7b"><path d="M 116 84 L 605 84 L 605 418 L 116 418 Z M 116 84 " clip-rule="nonzero"/></clipPath><clipPath id="a71258d5ec"><path d="M 158.015625 37.855469 L 771.875 157.960938 L 651.765625 771.824219 L 37.90625 651.714844 Z M 158.015625 37.855469 " clip-rule="nonzero"/></clipPath><clipPath id="872b2e9fb6"><path d="M 158.015625 37.855469 L 771.875 157.960938 L 651.765625 771.824219 L 37.90625 651.714844 Z M 158.015625 37.855469 " clip-rule="nonzero"/></clipPath></defs><g clip-path="url(#2df145bd08)"><g clip-path="url(#2d71f6bc9c)"><g clip-path="url(#31245cb6c5)"><path fill="#f6f6f6" d="M 525.625 682.707031 L 629.238281 649.222656 C 639.378906 645.730469 644.988281 634.882812 642.070312 624.355469 L 636.335938 605.3125 C 634.878906 600.050781 631.125 596.332031 626.707031 593.476562 C 622.195312 591.097656 616.828125 590.546875 611.5625 592.003906 L 602.570312 594.726562 C 600.453125 592.816406 598.046875 589.859375 596.878906 585.648438 C 596.492188 585.074219 596.585938 584.59375 596.203125 584.023438 C 606.34375 580.53125 612.042969 569.203125 609.125 558.675781 L 595.710938 512.746094 C 594.253906 507.484375 590.59375 503.28125 585.699219 500.332031 C 581.183594 497.957031 575.816406 497.40625 570.460938 499.34375 L 569.980469 499.25 C 569.6875 498.195312 569.304688 497.625 569.011719 496.570312 C 567.84375 492.359375 567.636719 488.335938 568.679688 485.554688 L 577.765625 482.355469 C 587.90625 478.863281 593.515625 468.015625 590.597656 457.488281 L 584.863281 438.449219 C 583.40625 433.183594 579.652344 429.464844 575.234375 426.609375 C 570.722656 424.230469 565.355469 423.679688 560.089844 425.136719 L 457.246094 459.769531 C 447.105469 463.261719 441.5 474.109375 444.417969 484.636719 L 450.148438 503.675781 C 451.609375 508.941406 455.359375 512.660156 459.777344 515.515625 C 461.601562 516.371094 463.425781 517.226562 464.863281 517.507812 C 468.21875 518.164062 471.285156 517.769531 474.441406 516.894531 L 484.011719 513.789062 C 485.644531 515.601562 487.574219 518.464844 488.835938 522.199219 C 489.417969 524.304688 490.003906 526.410156 489.628906 528.324219 L 488.574219 528.617188 C 482.738281 530.460938 478.351562 535.078125 476.265625 540.644531 C 465.636719 541.550781 451.472656 545.25 436.101562 557.671875 C 428.816406 556.746094 414.734375 557.476562 395.714844 568.1875 C 391.796875 570.410156 388.929688 572.335938 386.15625 573.785156 C 373.734375 581.308594 370.960938 582.757812 296.320312 602.996094 C 252.683594 614.867188 251.628906 615.160156 243.117188 617.972656 C 238.332031 619.527344 230.390625 621.953125 210.777344 628.074219 C 198.625 631.667969 188.117188 639.566406 183.367188 648.59375 C 180.136719 654.929688 179.394531 661.253906 181.238281 667.09375 C 183.960938 676.085938 192.222656 682.183594 202.773438 684.246094 C 209.960938 685.652344 218.96875 685.425781 227.480469 682.609375 C 248.148438 676.203125 255.609375 673.679688 260.394531 672.125 C 268.816406 669.792969 270.921875 669.207031 312.152344 654.378906 C 384.855469 628.78125 387.917969 628.386719 402.476562 627.75 C 405.542969 627.355469 408.992188 627.53125 414.066406 627.03125 C 435.902344 624.832031 447.273438 617.601562 453.191406 612.785156 C 470.441406 613.671875 482.5 610.554688 491.773438 606.398438 C 493.703125 609.261719 495.816406 611.171875 498.507812 612.691406 C 500.332031 613.546875 501.675781 614.308594 503.59375 614.683594 C 506.949219 615.339844 510.492188 615.035156 513.648438 614.160156 L 515.753906 613.578125 C 515.660156 614.058594 516.140625 614.152344 516.046875 614.628906 C 517.308594 618.363281 517.128906 621.8125 517.046875 624.78125 L 507 627.792969 C 496.859375 631.285156 491.253906 642.132812 494.171875 652.660156 L 499.902344 671.699219 C 501.363281 676.964844 505.113281 680.683594 509.53125 683.539062 C 511.355469 684.394531 513.179688 685.25 514.617188 685.53125 C 519.402344 683.976562 522.464844 683.582031 525.625 682.707031 Z M 468.710938 497.851562 L 462.980469 478.8125 C 462.980469 478.8125 463.074219 478.332031 463.074219 478.332031 L 566.6875 444.847656 L 572.328125 464.367188 Z M 552.671875 506.316406 L 509.429688 521.25 C 509.230469 519.71875 508.648438 517.613281 508.449219 516.082031 C 507.574219 512.921875 506.21875 509.671875 504.769531 506.898438 L 549.929688 492.339844 C 550.230469 495.882812 550.628906 498.945312 551.886719 502.679688 C 551.699219 503.636719 551.992188 504.6875 552.671875 506.316406 Z M 413.503906 607.011719 C 408.910156 607.605469 405.9375 607.523438 402.875 607.917969 C 385.730469 609.042969 380.082031 609.929688 307.285156 636.003906 C 266.148438 650.355469 264.523438 651.03125 256.582031 653.460938 C 251.316406 654.917969 243.855469 657.441406 223.1875 663.851562 C 211.515625 667.539062 202.207031 664.226562 201.332031 661.066406 C 201.042969 660.015625 201.324219 658.578125 201.988281 657.710938 C 203.699219 654.066406 209.046875 649.636719 217.558594 646.820312 C 237.652344 640.796875 245.117188 638.277344 250.472656 636.335938 C 258.988281 633.523438 260.039062 633.230469 303.105469 621.746094 C 378.320312 601.121094 383.199219 599.089844 397.914062 590.023438 C 400.207031 588.480469 403.074219 586.554688 406.898438 584.8125 C 418.652344 578.152344 427.367188 576.871094 431.867188 576.757812 L 438.765625 600.007812 C 433.890625 602.039062 426.238281 605.519531 413.503906 607.011719 Z M 456.652344 592.554688 L 450.335938 571.410156 C 461.988281 562.738281 471.941406 560.207031 478.546875 559.507812 L 486.136719 586.875 C 480.019531 590.160156 470.449219 593.265625 456.652344 592.554688 Z M 508.585938 594.253906 L 495.265625 547.847656 C 494.878906 547.273438 495.546875 546.40625 496.027344 546.5 L 577.722656 518.1875 L 591.136719 564.117188 C 591.523438 564.6875 590.855469 565.554688 590.375 565.460938 Z M 583.246094 601.894531 L 538.089844 616.453125 C 537.691406 613.390625 537.296875 610.328125 536.421875 607.167969 C 536.515625 606.6875 536.128906 606.117188 535.742188 605.542969 L 578.984375 590.609375 C 578.890625 591.085938 579.277344 591.660156 579.183594 592.140625 C 579.484375 595.683594 581.414062 598.550781 583.246094 601.894531 Z M 514.160156 644.625 L 617.773438 611.140625 L 623.414062 630.660156 L 519.796875 664.144531 Z M 514.160156 644.625 " fill-opacity="1" fill-rule="nonzero"/></g></g></g><g clip-path="url(#e7fe01451d)"><g clip-path="url(#e1fd89f7fb)"><g clip-path="url(#e89034a080)"><path fill="#f6f6f6" d="M 644.152344 710.378906 L 529.574219 687.960938 C 519.027344 685.894531 508.707031 692.835938 506.644531 703.382812 L 501.015625 732.148438 C 499.984375 737.421875 503.457031 742.582031 508.730469 743.613281 L 642.484375 769.785156 C 647.757812 770.816406 652.917969 767.34375 653.949219 762.070312 L 659.578125 733.308594 C 661.640625 722.761719 654.699219 712.441406 644.152344 710.378906 Z M 636.648438 748.730469 L 522.070312 726.3125 L 525.820312 707.136719 L 640.402344 729.554688 Z M 636.648438 748.730469 " fill-opacity="1" fill-rule="nonzero"/></g></g></g><g clip-path="url(#a36aa7e16a)"><g clip-path="url(#e4498eebfe)"><g clip-path="url(#d8eb299f2a)"><path fill="#f6f6f6" d="M 255.875 415.390625 C 250.601562 414.359375 245.441406 417.832031 244.410156 423.105469 C 243.378906 428.378906 246.847656 433.535156 252.121094 434.566406 L 409.847656 465.429688 C 415.121094 466.460938 420.28125 462.988281 421.3125 457.714844 C 422.34375 452.441406 418.875 447.285156 413.601562 446.253906 Z M 255.875 415.390625 " fill-opacity="1" fill-rule="nonzero"/></g></g></g><g clip-path="url(#1a4fa12a7b)"><g clip-path="url(#a71258d5ec)"><g clip-path="url(#872b2e9fb6)"><path fill="#f6f6f6" d="M 278.605469 329.742188 L 305.285156 295.144531 C 307.285156 292.546875 308.035156 288.710938 306.589844 285.941406 C 305.234375 282.6875 302.636719 280.6875 299.28125 280.03125 L 290.171875 278.25 L 253.863281 163.628906 C 260.859375 163.503906 268.421875 162.992188 276.65625 161.617188 C 315.238281 155.226562 342.734375 154.632812 361.992188 155.417969 C 364.035156 162.785156 368.757812 169.183594 375.476562 172.988281 L 332.890625 390.640625 L 313.714844 386.886719 C 308.441406 385.855469 303.285156 389.328125 302.25 394.601562 C 301.21875 399.875 304.691406 405.03125 309.964844 406.0625 L 367.492188 417.320312 C 372.765625 418.351562 377.925781 414.882812 378.957031 409.609375 C 379.988281 404.335938 376.519531 399.175781 371.246094 398.144531 L 352.070312 394.390625 L 394.65625 176.738281 C 402.316406 175.75 409.101562 171.601562 413.769531 165.546875 C 431.515625 171.507812 456.664062 182.898438 489.996094 203.359375 C 497.101562 207.734375 503.917969 211.058594 510.347656 213.8125 L 433.132812 305.722656 L 424.023438 303.941406 C 420.667969 303.285156 417.414062 304.636719 415.027344 306.660156 C 412.546875 309.160156 411.890625 312.515625 412.765625 315.675781 L 424.4375 357.78125 C 425.222656 361.417969 428.203125 363.992188 432.035156 364.742188 L 565.792969 390.914062 C 569.628906 391.664062 572.878906 390.308594 575.453125 387.328125 L 602.132812 352.726562 C 604.136719 350.132812 604.886719 346.296875 603.4375 343.523438 C 602.082031 340.273438 599.488281 338.273438 596.132812 337.613281 L 587.023438 335.832031 L 549.660156 221.503906 C 555.695312 221.191406 560.957031 219.730469 566.410156 217.3125 C 593.953125 206.277344 602.261719 176.542969 602.542969 175.105469 C 604.054688 169.925781 600.582031 164.765625 595.882812 163.347656 C 590.703125 161.835938 585.542969 165.308594 584.125 170.007812 C 584.125 170.007812 577.894531 191.6875 559.4375 199.523438 C 554.558594 201.554688 549.484375 202.054688 543.542969 201.890625 C 541.800781 198.0625 538.25 195.875 534.226562 196.085938 C 530.578125 194.375 526.460938 195.0625 523.40625 197.949219 C 515.925781 195.488281 508.242188 191.5 499.792969 186.359375 C 464.636719 165.046875 438.050781 153.375 418.960938 146.652344 C 418.4375 136.59375 413.226562 127.609375 404.773438 122.472656 L 409.746094 97.0625 C 410.777344 91.789062 407.308594 86.632812 402.035156 85.597656 C 396.761719 84.566406 391.601562 88.039062 390.570312 93.3125 L 385.597656 118.71875 C 375.832031 120.292969 367.621094 126.652344 363.347656 135.769531 C 343.128906 134.800781 314.105469 135.59375 273.511719 142.085938 C 263.746094 143.660156 255.125 144.460938 247.265625 143.917969 C 245.433594 140.574219 241.972656 137.90625 237.949219 138.113281 C 234.300781 136.40625 230.1875 137.09375 227.132812 139.980469 C 222.046875 137.988281 217.148438 135.039062 213.300781 131.796875 C 199.066406 118.0625 201.941406 95.726562 201.941406 95.726562 C 202.496094 90.359375 199.023438 85.203125 193.65625 84.648438 C 187.808594 84.003906 183.132812 87.566406 182.578125 92.933594 C 182.296875 94.371094 178.785156 125.042969 200.140625 145.648438 C 204.371094 149.464844 208.695312 152.800781 214.167969 155.363281 L 136.855469 247.753906 L 127.746094 245.96875 C 124.390625 245.3125 121.140625 246.667969 118.753906 248.691406 C 116.273438 251.191406 115.617188 254.546875 116.492188 257.707031 L 128.164062 299.8125 C 128.851562 303.925781 131.832031 306.5 135.667969 307.253906 L 269.421875 333.421875 C 272.777344 334.078125 276.511719 332.816406 278.605469 329.742188 Z M 563.21875 370.996094 L 441.449219 347.171875 L 435.613281 326.117188 L 576.558594 353.695312 Z M 529.253906 221.492188 L 564.488281 331.425781 L 454.703125 309.945312 Z M 391.714844 138.335938 C 396.988281 139.367188 400.460938 144.523438 399.429688 149.800781 C 398.394531 155.074219 393.238281 158.542969 387.964844 157.511719 C 382.691406 156.480469 379.21875 151.320312 380.25 146.046875 C 381.285156 140.773438 386.441406 137.304688 391.714844 138.335938 Z M 232.980469 163.523438 L 268.695312 273.546875 L 158.910156 252.066406 Z M 145.171875 289.203125 L 139.335938 268.148438 L 280.28125 295.726562 L 266.941406 313.027344 Z M 145.171875 289.203125 " fill-opacity="1" fill-rule="nonzero"/></g></g></g></svg>