<svg xmlns="http://www.w3.org/2000/svg" xmlns:xlink="http://www.w3.org/1999/xlink" width="1080" zoomAndPan="magnify" viewBox="0 0 810 809.999993" height="1080" preserveAspectRatio="xMidYMid meet" version="1.0"><defs><clipPath id="31e97cb01a"><path d="M 8 43 L 799 43 L 799 745 L 8 745 Z M 8 43 " clip-rule="nonzero"/></clipPath><clipPath id="ac3536a42f"><path d="M 138.457031 0 L 886.933594 168.679688 L 737.542969 831.554688 L -10.933594 662.875 Z M 138.457031 0 " clip-rule="nonzero"/></clipPath><clipPath id="ef6e21764a"><path d="M 138.457031 0 L 886.933594 168.679688 L 737.542969 831.554688 L -10.933594 662.875 Z M 138.457031 0 " clip-rule="nonzero"/></clipPath></defs><g clip-path="url(#31e97cb01a)"><g clip-path="url(#ac3536a42f)"><g clip-path="url(#ef6e21764a)"><path fill="#f6f6f6" d="M 764.058594 608.304688 C 763.242188 611.933594 759.484375 614.300781 755.847656 613.480469 L 613.710938 581.449219 C 607.433594 580.03125 601.230469 583.957031 599.808594 590.257812 L 598.753906 594.941406 C 596.644531 604.300781 587.339844 610.136719 577.996094 608.03125 C 568.675781 605.929688 562.769531 596.667969 564.878906 587.308594 L 570.199219 563.710938 C 571.597656 557.503906 567.675781 551.296875 561.398438 549.882812 L 199.339844 468.289062 C 198.445312 459.488281 199.179688 451.703125 201.402344 443.054688 L 566.90625 525.425781 C 573.183594 526.839844 579.386719 522.917969 580.808594 516.617188 L 586.125 493.019531 C 588.214844 483.753906 597.539062 477.824219 606.882812 479.929688 C 616.207031 482.03125 622.085938 491.386719 620 500.652344 L 618.921875 505.429688 C 617.523438 511.640625 621.425781 517.941406 627.699219 519.355469 L 769.835938 551.386719 C 773.476562 552.207031 775.851562 555.957031 775.035156 559.585938 L 764.054688 608.300781 Z M 227.027344 517.589844 C 230.6875 520.320312 232.359375 525.015625 231.371094 529.410156 L 211.90625 615.769531 C 211.457031 617.777344 212.753906 619.773438 214.71875 620.21875 L 250.753906 628.339844 C 252.722656 628.78125 254.75 627.53125 255.203125 625.527344 L 274.664062 539.167969 C 275.65625 534.773438 279.179688 531.25 283.65625 530.351562 C 294.03125 528.273438 303.726562 523.835938 312.046875 517.476562 L 206.933594 493.789062 C 211.6875 502.992188 218.472656 511.148438 227.027344 517.589844 Z M 435.09375 662.050781 L 460.152344 550.855469 L 339.472656 523.660156 C 327.78125 536.785156 312.632812 546.320312 295.75 551.347656 L 277.882812 630.636719 C 274.609375 645.15625 260.132812 654.34375 245.628906 651.074219 L 209.597656 642.953125 C 195.09375 639.6875 185.96875 625.179688 189.238281 610.660156 L 207.109375 531.371094 C 181.882812 508.824219 170.511719 474.039062 178.023438 440.699219 C 189.390625 390.257812 239.65625 358.523438 290.066406 369.882812 C 305.332031 373.324219 319.328125 380.394531 330.984375 390.546875 L 454.074219 324.433594 C 448.21875 321.40625 441.996094 319 435.539062 317.546875 L 181.109375 260.207031 C 140.605469 251.078125 100.21875 276.609375 91.089844 317.113281 L 33.738281 571.601562 C 24.609375 612.105469 50.140625 652.488281 90.644531 661.617188 L 345.074219 718.957031 C 385.589844 728.089844 425.964844 702.554688 435.09375 662.050781 Z M 236.847656 131.628906 C 246.988281 86.636719 291.847656 58.300781 336.832031 68.4375 L 377.128906 77.519531 C 422.121094 87.660156 450.480469 132.496094 440.34375 177.492188 L 427.726562 233.472656 L 393.851562 225.839844 L 406.46875 169.859375 C 412.386719 143.585938 395.800781 117.363281 369.484375 111.433594 L 329.191406 102.351562 C 302.871094 96.421875 276.640625 112.992188 270.722656 139.265625 L 245.554688 250.9375 L 211.679688 243.304688 Z M 255.132812 431.371094 L 308.539062 402.65625 C 276.757812 381.125 233.109375 389.789062 211.339844 421.503906 Z M 492.445312 407.5625 C 494.167969 399.921875 494.667969 392.003906 493.945312 384.210938 L 361.628906 455.375 L 475.871094 481.121094 L 492.449219 407.5625 Z M 593.625 275.878906 L 289.730469 439.171875 L 327.027344 447.574219 L 605.488281 297.925781 C 610.015625 295.53125 615.625 296.292969 619.230469 300.019531 C 642.023438 323.023438 677.875 328.390625 706.429688 313.042969 C 742.125 293.917969 755.59375 249.007812 736.441406 213.402344 C 727.132812 196.046875 711.640625 183.421875 692.820312 177.671875 C 673.996094 172.027344 654.074219 174.0625 636.753906 183.304688 C 608.199219 198.652344 592.867188 231.535156 599.503906 263.246094 C 600.550781 268.304688 598.148438 273.484375 593.625 275.878906 Z M 774.960938 528.648438 L 643.601562 499.046875 C 644.660156 479.609375 631.558594 461.699219 611.964844 457.285156 C 590.136719 452.367188 568.355469 466.125 563.445312 487.910156 L 560.667969 500.230469 L 498.546875 486.230469 L 515.125 412.671875 C 518.09375 399.492188 518.273438 385.777344 515.734375 372.558594 L 609.199219 322.351562 C 639.191406 347.480469 682.460938 352.3125 717.40625 333.589844 C 740.230469 321.265625 756.871094 300.925781 764.332031 276.105469 C 771.796875 251.386719 769.148438 225.195312 756.929688 202.363281 C 744.65625 179.621094 724.289062 162.886719 699.503906 155.492188 C 674.730469 148.003906 648.53125 150.628906 625.75 162.863281 C 590.769531 181.679688 570.910156 220.367188 575.34375 259.3125 L 477.539062 311.851562 C 466.574219 303.757812 453.980469 297.910156 440.644531 294.90625 L 268.234375 256.050781 L 293.398438 144.375 C 296.5 130.621094 310.273438 121.878906 324.089844 124.992188 L 364.382812 134.070312 C 378.207031 137.1875 386.890625 150.988281 383.789062 164.746094 L 368.609375 232.09375 C 367.210938 238.304688 371.152344 244.511719 377.410156 245.921875 L 433.960938 258.667969 C 440.21875 260.078125 446.445312 256.160156 447.84375 249.949219 L 463.019531 182.601562 C 475.960938 125.191406 439.71875 67.835938 382.230469 54.878906 L 341.933594 45.796875 C 284.445312 32.84375 227.117188 69.109375 214.175781 126.523438 L 189.007812 238.195312 L 186.210938 237.566406 C 133.203125 225.617188 80.371094 258.984375 68.421875 312.003906 L 11.070312 566.492188 C -0.878906 619.507812 32.53125 672.3125 85.542969 684.257812 L 339.972656 741.597656 C 392.992188 753.546875 445.824219 720.183594 457.769531 667.164062 L 482.832031 555.96875 L 544.953125 569.96875 L 542.199219 582.195312 C 537.265625 604.070312 551.042969 625.847656 572.886719 630.769531 C 592.460938 635.183594 611.996094 624.527344 619.378906 606.515625 L 750.742188 636.121094 C 766.941406 639.773438 783.097656 629.558594 786.734375 613.414062 L 797.714844 564.695312 C 801.375 548.453125 791.164062 532.300781 774.960938 528.648438 Z M 645.363281 240.359375 C 652.5 216.75 684.355469 214.109375 695.683594 235.238281 C 707.195312 256.703125 686.945312 281.308594 663.699219 274.40625 C 649.335938 270.140625 641.058594 254.703125 645.363281 240.359375 Z M 656.992188 296.683594 C 644.0625 292.765625 633.410156 284.042969 627.007812 272.160156 C 613.769531 247.601562 623.160156 216.835938 647.636719 203.628906 C 672.222656 190.402344 702.945312 199.730469 716.152344 224.289062 C 722.558594 236.171875 723.9375 249.835938 720.027344 262.808594 C 711.902344 289.863281 683.136719 304.816406 656.992188 296.683594 Z M 656.992188 296.683594 " fill-opacity="1" fill-rule="evenodd"/></g></g></g></svg>