<svg xmlns="http://www.w3.org/2000/svg" xmlns:xlink="http://www.w3.org/1999/xlink" width="1080" zoomAndPan="magnify" viewBox="0 0 810 809.999993" height="1080" preserveAspectRatio="xMidYMid meet" version="1.0"><defs><clipPath id="1c79d9c9fe"><path d="M 231 31 L 715 31 L 715 482 L 231 482 Z M 231 31 " clip-rule="nonzero"/></clipPath><clipPath id="036905bd60"><path d="M 265.996094 0 L 751.050781 142.304688 L 544.140625 847.578125 L 59.082031 705.277344 Z M 265.996094 0 " clip-rule="nonzero"/></clipPath><clipPath id="3293b8e359"><path d="M 265.996094 0 L 751.050781 142.304688 L 544.140625 847.578125 L 59.082031 705.277344 Z M 265.996094 0 " clip-rule="nonzero"/></clipPath><clipPath id="15504e11b1"><path d="M 270.625 1.359375 L 744.351562 140.339844 L 633.054688 519.703125 L 159.328125 380.722656 Z M 270.625 1.359375 " clip-rule="nonzero"/></clipPath><clipPath id="1349b34d88"><path d="M 361 415 L 392 415 L 392 447 L 361 447 Z M 361 415 " clip-rule="nonzero"/></clipPath><clipPath id="cbdb43af05"><path d="M 265.996094 0 L 751.050781 142.304688 L 544.140625 847.578125 L 59.082031 705.277344 Z M 265.996094 0 " clip-rule="nonzero"/></clipPath><clipPath id="48ab872810"><path d="M 265.996094 0 L 751.050781 142.304688 L 544.140625 847.578125 L 59.082031 705.277344 Z M 265.996094 0 " clip-rule="nonzero"/></clipPath><clipPath id="4b32f124ee"><path d="M 137 392 L 615 392 L 615 794 L 137 794 Z M 137 392 " clip-rule="nonzero"/></clipPath><clipPath id="b036e458d8"><path d="M 265.996094 0 L 751.050781 142.304688 L 544.140625 847.578125 L 59.082031 705.277344 Z M 265.996094 0 " clip-rule="nonzero"/></clipPath><clipPath id="27f41a2747"><path d="M 265.996094 0 L 751.050781 142.304688 L 544.140625 847.578125 L 59.082031 705.277344 Z M 265.996094 0 " clip-rule="nonzero"/></clipPath></defs><g clip-path="url(#1c79d9c9fe)"><g clip-path="url(#036905bd60)"><g clip-path="url(#3293b8e359)"><g clip-path="url(#15504e11b1)"><path fill="#f6f6f6" d="M 383.398438 122.453125 C 388.378906 127.140625 396.175781 126.855469 400.828125 121.882812 C 412.964844 108.910156 427.980469 99.878906 444.191406 94.9375 C 448.558594 93.601562 452.980469 92.558594 457.445312 91.871094 C 457.535156 91.859375 457.625 91.835938 457.710938 91.816406 C 491.050781 86.8125 526.332031 99.582031 548.253906 125.578125 C 559.261719 138.601562 567 154.445312 570.128906 172.0625 C 570.976562 176.832031 574.457031 180.460938 578.808594 181.738281 C 580.578125 182.257812 582.488281 182.394531 584.425781 182.046875 C 591.132812 180.851562 595.605469 174.457031 594.417969 167.746094 C 591.742188 152.722656 586.222656 138.828125 578.765625 126.25 C 592.195312 124.511719 605.867188 125.417969 619.058594 129.289062 C 671.261719 144.605469 701.273438 199.535156 685.960938 251.730469 C 670.644531 303.933594 615.714844 333.941406 563.511719 318.628906 C 550.304688 314.753906 538.292969 308.117188 527.921875 299.386719 C 540.375 293.15625 552 285.011719 562.011719 274.582031 C 566.726562 269.679688 566.558594 261.867188 561.652344 257.148438 C 556.714844 252.4375 548.917969 252.597656 544.210938 257.515625 C 532.125 270.109375 517.246094 278.863281 501.214844 283.660156 C 497.4375 284.796875 493.597656 285.667969 489.730469 286.3125 C 489.082031 286.425781 488.449219 286.589844 487.796875 286.6875 C 454.574219 291.546875 419.484375 278.800781 397.648438 252.90625 C 386.636719 239.878906 378.902344 224.035156 375.773438 206.414062 C 374.574219 199.714844 368.183594 195.230469 361.472656 196.4375 C 354.765625 197.632812 350.300781 204.027344 351.488281 210.738281 C 354.160156 225.761719 359.675781 239.652344 367.132812 252.234375 C 353.703125 253.96875 340.039062 253.066406 326.839844 249.195312 C 274.636719 233.878906 244.628906 178.949219 259.941406 126.746094 C 275.253906 74.550781 330.1875 44.539062 382.386719 59.855469 C 395.589844 63.726562 407.582031 70.359375 417.953125 79.078125 C 405.070312 85.53125 393.078125 94.0625 382.820312 105.027344 C 378.167969 110 378.425781 117.808594 383.398438 122.453125 Z M 320.921875 350.277344 L 330 275.125 C 347.804688 278.769531 366.0625 278.679688 383.710938 274.367188 C 384.328125 275.011719 385.054688 275.535156 385.679688 276.164062 C 388.773438 279.269531 391.945312 282.277344 395.367188 285.035156 C 395.835938 285.410156 396.339844 285.730469 396.8125 286.09375 C 408.933594 295.585938 422.8125 303.058594 438.230469 307.582031 C 453.4375 312.042969 468.984375 313.269531 484.175781 311.894531 C 484.949219 311.832031 485.722656 311.84375 486.5 311.765625 C 490.433594 311.328125 494.304688 310.558594 498.167969 309.753906 C 499.460938 309.480469 500.773438 309.394531 502.054688 309.085938 C 514.574219 322.25 529.890625 332.191406 546.847656 338.742188 L 513.878906 406.886719 Z M 236.273438 119.800781 C 218.535156 180.265625 249.492188 243.582031 306.042969 267.792969 L 295.308594 356.671875 L 281.707031 403.039062 C 279.785156 409.578125 283.53125 416.421875 290.066406 418.339844 L 337.589844 432.285156 L 344.535156 408.613281 L 308.84375 398.140625 L 315.785156 374.480469 L 505.128906 430.027344 L 498.1875 453.691406 L 415.347656 429.386719 L 408.402344 453.058594 L 503.074219 480.832031 C 509.609375 482.75 516.460938 479.011719 518.378906 472.472656 L 531.980469 426.105469 L 570.964844 345.515625 C 631.632812 355.695312 691.890625 319.136719 709.628906 258.675781 C 728.773438 193.425781 691.265625 124.765625 626.003906 105.621094 C 605.089844 99.484375 583.183594 98.980469 562.1875 104.117188 C 561.570312 103.472656 560.851562 102.949219 560.21875 102.320312 C 557.125 99.210938 553.953125 96.207031 550.53125 93.449219 C 550.0625 93.070312 549.558594 92.753906 549.085938 92.390625 C 536.972656 82.898438 523.089844 75.425781 507.667969 70.902344 C 492.316406 66.398438 476.660156 65.179688 461.390625 66.597656 C 460.722656 66.660156 460.066406 66.648438 459.40625 66.71875 C 455.164062 67.179688 451.003906 67.984375 446.84375 68.882812 C 445.851562 69.09375 444.839844 69.160156 443.84375 69.398438 C 428.953125 53.730469 410.246094 42.320312 389.332031 36.183594 C 324.078125 17.039062 255.414062 54.554688 236.273438 119.800781 " fill-opacity="1" fill-rule="nonzero"/></g></g></g></g><g clip-path="url(#1349b34d88)"><g clip-path="url(#cbdb43af05)"><g clip-path="url(#48ab872810)"><path fill="#f6f6f6" d="M 384.738281 446.117188 L 391.683594 422.445312 L 368.203125 415.558594 L 361.261719 439.226562 L 384.738281 446.117188 " fill-opacity="1" fill-rule="nonzero"/></g></g></g><g clip-path="url(#4b32f124ee)"><g clip-path="url(#b036e458d8)"><g clip-path="url(#27f41a2747)"><path fill="#f6f6f6" d="M 182.351562 421.265625 C 193.226562 415.335938 207.125 415.898438 221.460938 422.828125 C 237.203125 430.445312 251.289062 444.554688 261.121094 462.550781 C 275.550781 488.964844 277.746094 518.433594 266.710938 537.652344 C 264.570312 541.371094 264.527344 545.941406 266.585938 549.699219 L 347.492188 697.808594 C 347.492188 697.808594 347.492188 697.808594 347.5 697.808594 C 347.496094 697.816406 347.496094 697.816406 347.496094 697.816406 L 376.480469 750.855469 C 378.058594 753.746094 378.410156 757.085938 377.484375 760.242188 C 376.554688 763.40625 374.464844 766.019531 371.574219 767.589844 C 365.597656 770.859375 358.089844 768.644531 354.835938 762.679688 L 244.933594 561.523438 C 243.351562 558.625 240.683594 556.511719 237.589844 555.601562 C 236.660156 555.332031 235.703125 555.167969 234.71875 555.113281 C 212.574219 554.078125 188.964844 536.269531 174.542969 509.859375 C 164.710938 491.855469 160.445312 472.378906 162.539062 455.019531 C 164.457031 439.191406 171.492188 427.210938 182.351562 421.265625 Z M 445.390625 602.15625 C 449.152344 600.105469 451.585938 596.234375 451.800781 591.941406 C 452.886719 569.816406 470.652344 546.203125 497.0625 531.773438 C 515.0625 521.9375 534.539062 517.675781 551.90625 519.769531 C 567.714844 521.6875 579.71875 528.722656 585.652344 539.585938 C 598.472656 563.050781 579.570312 599.117188 544.371094 618.355469 C 517.960938 632.789062 488.488281 635.039062 469.273438 623.925781 C 465.5625 621.8125 460.976562 621.753906 457.214844 623.800781 L 363.226562 675.164062 L 351.398438 653.507812 Z M 256.050781 733.699219 C 250.277344 736.878906 242.484375 734.601562 239.324219 728.785156 C 237.742188 725.90625 237.386719 722.578125 238.316406 719.410156 C 239.242188 716.257812 241.339844 713.648438 244.238281 712.058594 L 286.464844 688.988281 L 298.289062 710.632812 Z M 138.050781 452.066406 C 135.351562 474.476562 140.625 499.203125 152.898438 521.683594 C 169.910156 552.835938 198.152344 574.648438 226.390625 579.027344 L 274.640625 667.34375 L 232.410156 690.417969 C 223.738281 695.15625 217.425781 702.992188 214.644531 712.46875 C 211.863281 721.953125 212.945312 731.960938 217.679688 740.617188 C 222.421875 749.289062 230.25 755.601562 239.734375 758.382812 C 249.214844 761.164062 259.214844 760.082031 267.882812 755.34375 L 310.113281 732.277344 L 333.191406 774.503906 C 338.082031 783.460938 346.152344 789.59375 355.25 792.25 C 364.34375 794.917969 374.445312 794.128906 383.394531 789.234375 C 392.070312 784.5 398.371094 776.671875 401.15625 767.183594 C 403.933594 757.707031 402.863281 747.707031 398.121094 739.035156 L 375.054688 696.804688 L 463.363281 648.550781 C 489.445312 660.019531 525.03125 657.019531 556.195312 640 C 603.941406 613.910156 626.859375 563.5625 607.296875 527.761719 C 597.445312 509.726562 578.839844 498.226562 554.859375 495.28125 C 532.4375 492.585938 507.707031 497.847656 485.238281 510.128906 C 454.070312 527.15625 432.261719 555.398438 427.886719 583.617188 L 339.574219 631.867188 L 291.324219 543.554688 C 302.890625 517.429688 299.792969 481.878906 282.765625 450.726562 C 270.492188 428.253906 252.53125 410.464844 232.199219 400.621094 C 210.460938 390.140625 188.566406 389.757812 170.53125 399.625 C 152.480469 409.480469 140.953125 428.101562 138.050781 452.066406 " fill-opacity="1" fill-rule="nonzero"/></g></g></g></svg>