<svg xmlns="http://www.w3.org/2000/svg" xmlns:xlink="http://www.w3.org/1999/xlink" width="1080" zoomAndPan="magnify" viewBox="0 0 810 809.999993" height="1080" preserveAspectRatio="xMidYMid meet" version="1.0"><defs><clipPath id="803da46f0d"><path d="M 21 113 L 800 113 L 800 662 L 21 662 Z M 21 113 " clip-rule="nonzero"/></clipPath><clipPath id="79a83e9e69"><path d="M 263.515625 -19.566406 L 840.917969 306.28125 L 577.367188 773.296875 L -0.0351562 447.449219 Z M 263.515625 -19.566406 " clip-rule="nonzero"/></clipPath><clipPath id="b7727207b4"><path d="M 263.515625 -19.566406 L 840.917969 306.28125 L 577.367188 773.296875 L -0.0351562 447.449219 Z M 263.515625 -19.566406 " clip-rule="nonzero"/></clipPath></defs><g clip-path="url(#803da46f0d)"><g clip-path="url(#79a83e9e69)"><g clip-path="url(#b7727207b4)"><path fill="#f6f6f6" d="M 152.597656 177.003906 L 24.554688 403.898438 C 20.117188 411.757812 21.109375 422.777344 28.3125 435.453125 C 42 459.550781 78.71875 491.792969 126.742188 518.894531 C 174.761719 545.992188 221.34375 560.761719 249.046875 560.019531 C 263.621094 559.632812 273.570312 554.789062 278.003906 546.925781 C 278.003906 546.925781 406.046875 320.03125 406.046875 320.03125 C 410.484375 312.175781 409.492188 301.152344 402.289062 288.476562 C 388.597656 264.382812 351.882812 232.132812 303.863281 205.03125 C 255.839844 177.929688 209.253906 163.175781 181.550781 163.910156 C 166.976562 164.296875 157.03125 169.144531 152.597656 177.003906 Z M 132.289062 240.53125 L 36.34375 410.550781 C 34.820312 413.246094 35.132812 416.644531 36.363281 420.539062 C 38.0625 425.917969 41.609375 431.949219 46.613281 438.453125 C 62.945312 459.683594 94.332031 485.058594 133.394531 507.101562 C 172.457031 529.148438 210.402344 542.898438 237.015625 545.90625 C 245.175781 546.828125 252.171875 546.746094 257.652344 545.417969 C 261.621094 544.457031 264.691406 542.972656 266.214844 540.273438 L 362.160156 370.257812 C 361.191406 370.378906 360.195312 370.480469 359.171875 370.554688 C 335.757812 372.28125 296.867188 361.695312 254.792969 340.84375 C 247.277344 344.667969 238.050781 344.777344 230.164062 340.328125 C 226.222656 338.101562 223.078125 334.996094 220.847656 331.398438 L 205.289062 358.96875 C 198.226562 371.484375 182.332031 375.914062 169.816406 368.851562 C 157.300781 361.789062 152.875 345.890625 159.9375 333.375 L 161.910156 329.878906 C 157.675781 329.832031 153.398438 328.746094 149.453125 326.519531 C 136.9375 319.457031 132.507812 303.5625 139.574219 291.046875 L 152.253906 268.578125 C 142.855469 258.5 136.066406 248.929688 132.289062 240.53125 Z M 775.351562 358.820312 C 782.980469 366.511719 784.925781 378.621094 779.34375 388.515625 L 748.28125 443.5625 C 741.542969 455.496094 726.382812 459.71875 714.441406 452.980469 L 550.652344 360.550781 C 547.398438 358.710938 543.269531 359.863281 541.433594 363.117188 L 507.472656 423.292969 L 464.460938 432.101562 C 462.542969 432.492188 460.886719 433.699219 459.925781 435.40625 L 357.644531 616.652344 C 355.804688 619.90625 356.957031 624.035156 360.210938 625.871094 L 421.972656 660.722656 C 425.226562 662.558594 429.355469 661.410156 431.191406 658.15625 L 533.472656 476.910156 C 534.4375 475.203125 534.613281 473.164062 533.957031 471.316406 L 519.261719 429.945312 L 549.894531 375.664062 C 549.894531 375.664062 707.789062 464.769531 707.789062 464.769531 C 726.238281 475.179688 749.660156 468.65625 760.070312 450.214844 C 760.070312 450.214844 791.132812 395.167969 791.132812 395.167969 C 800.40625 378.734375 796.242188 358.351562 782.171875 346.734375 L 794.804688 324.347656 C 805.210938 305.90625 798.691406 282.480469 780.25 272.078125 L 507.710938 118.273438 C 489.265625 107.863281 465.84375 114.386719 455.433594 132.832031 L 424.371094 187.878906 C 413.960938 206.320312 420.484375 229.746094 438.929688 240.152344 C 438.929688 240.152344 711.46875 393.957031 711.46875 393.957031 C 729.910156 404.363281 753.332031 397.839844 763.738281 379.394531 Z M 433.5 626.519531 L 422.726562 645.609375 C 422.726562 645.609375 372.757812 617.410156 372.757812 617.410156 L 383.53125 598.320312 Z M 440.152344 614.730469 L 390.183594 586.53125 L 470.199219 444.742188 C 470.199219 444.742188 507.445312 437.117188 507.445312 437.117188 L 520.167969 472.941406 Z M 183.433594 240.863281 L 166.578125 270.734375 C 166.535156 270.8125 166.492188 270.886719 166.449219 270.964844 L 151.363281 297.699219 C 147.972656 303.707031 150.097656 311.339844 156.105469 314.730469 C 162.113281 318.121094 169.746094 315.996094 173.136719 309.988281 L 186.585938 286.15625 C 188.421875 282.902344 192.550781 281.753906 195.804688 283.589844 C 199.058594 285.425781 200.210938 289.558594 198.375 292.8125 L 171.726562 340.03125 C 168.335938 346.039062 170.460938 353.671875 176.46875 357.0625 C 182.476562 360.453125 190.109375 358.328125 193.5 352.316406 L 226.945312 293.050781 C 228.78125 289.800781 232.914062 288.648438 236.167969 290.484375 C 239.421875 292.320312 240.570312 296.453125 238.734375 299.707031 L 232.074219 311.507812 C 228.683594 317.515625 230.808594 325.148438 236.820312 328.539062 C 241.148438 330.984375 246.324219 330.558594 250.144531 327.882812 C 250.324219 327.738281 250.507812 327.601562 250.695312 327.476562 C 251.941406 326.496094 253.023438 325.261719 253.851562 323.792969 L 267.800781 299.074219 C 263.480469 296.820312 259.136719 294.460938 254.78125 292.003906 C 226.152344 275.847656 201.539062 257.859375 183.433594 240.863281 Z M 383.382812 332.648438 C 381.394531 332.90625 379.296875 333.070312 377.089844 333.125 C 354.265625 333.734375 318.617188 323.820312 279.914062 305.152344 L 265.640625 330.449219 C 265.546875 330.613281 265.453125 330.777344 265.355469 330.9375 C 297.382812 346.34375 327.042969 355.539062 348.246094 357.007812 C 355.160156 357.484375 361.082031 357.148438 365.742188 355.78125 C 369.089844 354.796875 371.691406 353.363281 373.042969 350.972656 Z M 153.511719 202.925781 L 143.171875 221.246094 C 141.542969 224.132812 141.992188 227.796875 143.449219 232.019531 C 145.917969 239.152344 151.410156 247.351562 159.25 256.171875 L 173.492188 230.9375 C 166.078125 223.019531 160.273438 215.453125 156.355469 208.558594 C 155.265625 206.640625 154.320312 204.761719 153.511719 202.925781 Z M 186.9375 225.488281 C 204.578125 243.355469 230.617188 262.824219 261.433594 280.214844 C 300.496094 302.257812 338.445312 316.003906 365.058594 319.011719 C 373.21875 319.933594 380.214844 319.851562 385.695312 318.527344 C 389.664062 317.5625 392.734375 316.078125 394.257812 313.378906 C 395.78125 310.683594 395.464844 307.285156 394.234375 303.390625 C 392.539062 298.011719 388.992188 291.980469 383.988281 285.476562 C 367.65625 264.246094 336.269531 238.863281 297.210938 216.820312 C 258.148438 194.777344 220.195312 181.03125 193.582031 178.023438 C 185.425781 177.101562 178.429688 177.183594 172.949219 178.511719 C 168.980469 179.472656 165.90625 180.957031 164.386719 183.65625 C 162.863281 186.355469 163.179688 189.75 164.40625 193.648438 C 166.105469 199.023438 169.652344 205.054688 174.65625 211.5625 C 177.964844 215.859375 181.886719 220.328125 186.363281 224.902344 C 186.570312 225.089844 186.761719 225.28125 186.9375 225.488281 Z M 503.589844 301.859375 C 503.460938 299.554688 502.167969 297.46875 500.15625 296.335938 C 498.144531 295.199219 495.691406 295.167969 493.652344 296.253906 C 493.652344 296.253906 472.109375 307.714844 456.6875 319.007812 C 449.269531 324.4375 443.285156 330.015625 440.835938 334.355469 C 431.890625 350.203125 437.496094 370.335938 453.347656 379.28125 C 469.199219 388.222656 489.328125 382.617188 498.273438 366.769531 C 500.722656 362.429688 502.402344 354.421875 503.214844 345.265625 C 504.910156 326.226562 503.589844 301.859375 503.589844 301.859375 Z M 290.664062 228.421875 C 260.226562 211.246094 231.933594 199.667969 216.167969 196.960938 C 211.050781 196.082031 206.96875 196.125 204.152344 196.824219 C 200.539062 197.71875 198.230469 199.652344 196.902344 202.003906 C 195.570312 204.359375 195.113281 207.335938 196.214844 210.894531 C 197.070312 213.664062 199.144531 217.179688 202.542969 221.109375 C 213.011719 233.203125 237.546875 251.4375 267.980469 268.613281 C 298.414062 285.789062 326.707031 297.367188 342.472656 300.074219 C 347.59375 300.957031 351.671875 300.910156 354.488281 300.214844 C 358.105469 299.316406 360.414062 297.382812 361.742188 295.03125 C 363.070312 292.675781 363.53125 289.699219 362.429688 286.144531 C 361.570312 283.371094 359.5 279.855469 356.101562 275.925781 C 345.632812 263.832031 321.097656 245.597656 290.664062 228.421875 Z M 490.457031 313.523438 C 490.636719 321.929688 490.644531 333.808594 489.730469 344.0625 C 489.128906 350.863281 488.300781 356.894531 486.484375 360.113281 C 481.210938 369.457031 469.34375 372.761719 460 367.488281 C 450.65625 362.21875 447.351562 350.351562 452.625 341.007812 C 454.441406 337.789062 459.179688 333.960938 464.6875 329.929688 C 472.996094 323.847656 483.164062 317.714844 490.457031 313.523438 Z M 347.558594 287.027344 C 346.648438 286.980469 345.675781 286.890625 344.765625 286.734375 C 329.902344 284.179688 303.328125 273.019531 274.632812 256.824219 C 245.9375 240.628906 222.648438 223.65625 212.777344 212.25 C 212.175781 211.550781 211.59375 210.765625 211.085938 210.007812 C 211.996094 210.054688 212.96875 210.144531 213.878906 210.300781 C 228.742188 212.855469 255.3125 224.015625 284.007812 240.210938 C 312.707031 256.40625 335.996094 273.382812 345.863281 284.785156 C 346.46875 285.484375 347.050781 286.269531 347.558594 287.027344 Z M 611 192.105469 L 597.925781 215.273438 C 590.863281 227.789062 574.96875 232.21875 562.453125 225.15625 C 558.507812 222.925781 555.367188 219.824219 553.136719 216.226562 L 537.578125 243.796875 C 530.515625 256.3125 514.617188 260.738281 502.101562 253.675781 C 489.585938 246.613281 485.160156 230.71875 492.222656 218.203125 L 507.78125 190.632812 C 503.550781 190.582031 499.269531 189.496094 495.324219 187.273438 C 482.808594 180.207031 478.382812 164.3125 485.445312 151.796875 L 498.433594 128.777344 C 486.984375 123.972656 473.476562 128.40625 467.222656 139.484375 C 467.222656 139.484375 436.160156 194.53125 436.160156 194.53125 C 429.421875 206.46875 433.644531 221.628906 445.582031 228.363281 L 718.125 382.167969 C 730.066406 388.90625 745.214844 384.679688 751.949219 372.742188 L 783.015625 317.695312 C 789.75 305.757812 785.539062 290.605469 773.597656 283.867188 Z M 599.210938 185.453125 L 510.308594 135.28125 L 497.234375 158.449219 C 493.84375 164.460938 495.96875 172.089844 501.976562 175.480469 C 507.984375 178.875 515.617188 176.746094 519.007812 170.738281 C 520.84375 167.484375 524.976562 166.335938 528.230469 168.171875 C 531.484375 170.007812 532.632812 174.136719 530.796875 177.390625 C 530.769531 177.445312 530.738281 177.5 530.707031 177.550781 C 530.691406 177.582031 530.675781 177.609375 530.660156 177.636719 C 530.660156 177.636719 504.011719 224.855469 504.011719 224.855469 C 500.621094 230.863281 502.746094 238.496094 508.753906 241.886719 C 514.765625 245.277344 522.394531 243.152344 525.789062 237.144531 L 559.234375 177.878906 C 561.070312 174.625 565.199219 173.476562 568.453125 175.3125 C 571.707031 177.148438 572.859375 181.277344 571.023438 184.53125 L 564.363281 196.332031 C 560.972656 202.34375 563.097656 209.972656 569.105469 213.363281 C 575.113281 216.753906 582.746094 214.628906 586.136719 208.621094 Z M 599.210938 185.453125 " fill-opacity="1" fill-rule="evenodd"/></g></g></g></svg>