<svg xmlns="http://www.w3.org/2000/svg" xmlns:xlink="http://www.w3.org/1999/xlink" width="1080" zoomAndPan="magnify" viewBox="0 0 810 809.999993" height="1080" preserveAspectRatio="xMidYMid meet" version="1.0"><defs><clipPath id="f73aba6d86"><path d="M 126 79 L 778 79 L 778 806 L 126 806 Z M 126 79 " clip-rule="nonzero"/></clipPath><clipPath id="1b8bd3f8c4"><path d="M -79.613281 229.851562 L 507.941406 -48.726562 L 782.984375 531.371094 L 195.433594 809.949219 Z M -79.613281 229.851562 " clip-rule="nonzero"/></clipPath><clipPath id="beddfad737"><path d="M -79.613281 229.851562 L 507.941406 -48.726562 L 782.984375 531.371094 L 195.433594 809.949219 Z M -79.613281 229.851562 " clip-rule="nonzero"/></clipPath></defs><g clip-path="url(#f73aba6d86)"><g clip-path="url(#1b8bd3f8c4)"><g clip-path="url(#beddfad737)"><path fill="#f6f6f6" d="M 147.058594 249.75 C 144.695312 244.761719 146.828125 238.761719 151.828125 236.394531 L 161.738281 231.691406 L 184.890625 280.519531 L 174.976562 285.21875 C 169.976562 287.589844 163.984375 285.445312 161.617188 280.457031 Z M 379.664062 139.460938 L 394.222656 170.167969 C 396.589844 175.15625 394.457031 181.15625 389.460938 183.523438 L 379.546875 188.222656 L 356.394531 139.398438 L 366.308594 134.695312 C 371.304688 132.328125 377.300781 134.472656 379.664062 139.460938 Z M 183.367188 302.914062 L 193.59375 298.0625 C 203.179688 293.519531 207.28125 282.027344 202.738281 272.449219 L 179.285156 222.980469 C 176.707031 217.542969 171.894531 213.886719 166.457031 212.550781 C 160.511719 169.898438 183.167969 127.003906 222.472656 108.367188 C 261.777344 89.730469 309.328125 99.339844 338.589844 130.933594 C 336.183594 135.992188 335.976562 142.046875 338.546875 147.46875 L 362.003906 196.9375 C 366.542969 206.511719 378.039062 210.613281 387.621094 206.070312 L 397.851562 201.21875 C 412.605469 194.222656 418.914062 176.523438 411.921875 161.777344 L 397.363281 131.070312 C 390.371094 116.320312 372.675781 110.007812 357.921875 117.003906 L 354.042969 118.839844 C 318.828125 79.78125 261.773438 68.058594 214.085938 90.667969 C 166.394531 113.28125 139.359375 164.871094 147.308594 216.859375 L 143.4375 218.695312 C 128.683594 225.691406 122.371094 243.386719 129.363281 258.140625 L 143.921875 288.84375 C 150.914062 303.589844 168.613281 309.910156 183.367188 302.914062 Z M 566.371094 526.628906 C 554.246094 532.378906 542.785156 530.035156 540.082031 524.335938 C 537.378906 518.636719 542.820312 508.289062 554.949219 502.539062 C 567.070312 496.792969 578.527344 499.128906 581.230469 504.828125 C 583.933594 510.527344 578.492188 520.882812 566.371094 526.628906 Z M 546.558594 484.847656 C 525.101562 495.019531 514.484375 516.0625 522.386719 532.726562 C 530.296875 549.414062 553.300781 554.5 574.761719 544.324219 C 596.21875 534.148438 606.835938 513.121094 598.925781 496.4375 C 591.023438 479.773438 568.015625 474.671875 546.558594 484.847656 Z M 629.808594 521.316406 C 648.359375 490.039062 635.179688 462.21875 599.210938 456.78125 C 560.296875 450.898438 511.578125 473.996094 491.503906 507.847656 C 472.964844 539.109375 486.113281 566.9375 522.101562 572.382812 C 561.035156 578.277344 609.734375 555.199219 629.808594 521.316406 Z M 602.144531 437.421875 C 555.347656 430.347656 498.796875 457.15625 474.664062 497.867188 C 448.992188 541.164062 469.417969 584.238281 519.183594 591.761719 C 565.960938 598.832031 622.53125 572.011719 646.664062 531.320312 C 672.335938 488.023438 651.910156 444.957031 602.144531 437.421875 Z M 210.738281 780.832031 L 750.539062 524.890625 L 607.976562 395.859375 L 296.128906 543.71875 L 304.886719 557.148438 C 352.140625 539.957031 399.371094 550.851562 414.933594 583.675781 C 423.46875 601.675781 421.339844 623.113281 408.9375 644.03125 C 384.804688 684.726562 328.242188 711.546875 281.460938 704.472656 C 224.703125 695.894531 208.304688 642.449219 246.878906 596.671875 L 229.875 575.128906 L 201.066406 588.789062 Z M 317.226562 615.253906 C 329.351562 609.503906 340.808594 611.84375 343.507812 617.539062 C 346.210938 623.238281 340.773438 633.59375 328.648438 639.34375 C 316.523438 645.09375 305.0625 642.75 302.363281 637.050781 C 299.65625 631.351562 305.101562 621.003906 317.226562 615.253906 Z M 397.234375 592.066406 C 402.890625 603.992188 401.0625 618.894531 392.085938 634.027344 C 372.003906 667.90625 323.324219 690.988281 284.382812 685.09375 C 243.042969 678.839844 233.914062 644.082031 260.378906 611.066406 C 268.78125 616.382812 279.261719 617.109375 288.78125 614.03125 C 281.851562 623.875 279.925781 635.445312 284.664062 645.441406 C 292.578125 662.128906 315.578125 667.214844 337.039062 657.039062 C 358.496094 646.863281 369.117188 625.835938 361.203125 609.152344 C 353.34375 592.570312 330.542969 587.453125 309.179688 597.40625 C 312.6875 590.851562 313.703125 583.242188 312.273438 575.308594 C 349.28125 562.136719 386.296875 568.992188 397.234375 592.066406 Z M 285.308594 527.175781 L 258.921875 486.828125 C 255.648438 481.820312 255.332031 479.277344 255.875 476.78125 L 267.070312 425.757812 L 309.679688 515.621094 Z M 192.148438 481.910156 C 190.824219 489.792969 193.398438 497.320312 200.5 506.320312 L 268.363281 592.277344 C 273.457031 598.738281 284.316406 596.644531 289.71875 591.125 C 297.300781 583.386719 291.148438 571.886719 288.148438 567.296875 L 242.53125 497.542969 C 238.605469 491.542969 234.398438 483.277344 236.746094 472.582031 L 254.082031 393.582031 C 256.074219 384.488281 268.507812 383.074219 272.496094 391.484375 L 327.375 507.230469 L 464.890625 442.027344 L 410.679688 327.695312 C 407.738281 321.492188 411.953125 314.242188 418.796875 313.730469 L 499.964844 307.675781 C 506.996094 307.144531 512.472656 304.445312 516.707031 299.402344 C 520.484375 294.910156 522.042969 289.304688 521.921875 280.644531 L 519.609375 114.863281 C 519.558594 110.773438 517.25 107.902344 515.335938 106.234375 C 505.957031 98.027344 489.234375 101.285156 488.585938 121.121094 L 484.746094 239.320312 C 484.484375 247.472656 481.839844 253.652344 476.644531 258.1875 C 472.929688 261.449219 466.421875 265.058594 456.527344 263.71875 L 397.390625 255.75 C 371.84375 252.300781 333.328125 268.53125 306.574219 281.027344 C 272.597656 297.015625 217.882812 329.347656 210.035156 375.871094 Z M 216.234375 235.640625 C 202.023438 205.667969 214.84375 169.710938 244.820312 155.496094 C 274.792969 141.285156 310.75 154.117188 324.960938 184.089844 C 339.273438 214.277344 326.3125 250.261719 295.589844 264.570312 C 265.773438 278.203125 230.324219 265.355469 216.234375 235.640625 Z M 774.546875 520.214844 L 616.261719 376.945312 C 613.328125 374.289062 609.078125 373.664062 605.5 375.359375 L 482.585938 433.636719 L 434.492188 332.195312 L 501.417969 327.203125 C 513.816406 326.273438 524.003906 321.160156 531.707031 312 C 540.734375 301.246094 541.621094 288.800781 541.503906 280.375 L 539.195312 114.59375 C 538.910156 94.496094 519.316406 80.414062 499.894531 82.738281 C 482.363281 84.851562 469.664062 100.363281 469.015625 120.488281 L 465.171875 238.6875 C 465.023438 243.363281 463.53125 244.90625 459.144531 244.316406 L 400.007812 236.328125 C 382.703125 234.003906 362.242188 238.328125 342.023438 245.214844 C 352.449219 224.085938 353.511719 198.589844 342.660156 175.695312 C 323.820312 135.96875 276.160156 118.949219 236.429688 137.789062 C 196.695312 156.628906 179.703125 204.296875 198.539062 244.027344 C 209.671875 267.511719 230.867188 283.03125 254.546875 287.933594 C 218.105469 312.851562 195.882812 342.058594 190.722656 372.609375 L 172.839844 478.65625 C 170.574219 492.082031 174.597656 505.105469 185.136719 518.457031 L 217.425781 559.355469 L 186.761719 573.894531 C 183.183594 575.589844 180.980469 579.28125 181.175781 583.230469 L 191.921875 796.457031 C 192.269531 803.382812 199.628906 807.769531 205.890625 804.800781 L 772.167969 536.308594 C 778.425781 533.339844 779.691406 524.867188 774.546875 520.214844 Z M 774.546875 520.214844 " fill-opacity="1" fill-rule="evenodd"/></g></g></g></svg>