<svg xmlns="http://www.w3.org/2000/svg" xmlns:xlink="http://www.w3.org/1999/xlink" width="1080" zoomAndPan="magnify" viewBox="0 0 810 809.999993" height="1080" preserveAspectRatio="xMidYMid meet" version="1.0"><defs><clipPath id="1fefb4e951"><path d="M 93 97 L 727 97 L 727 740 L 93 740 Z M 93 97 " clip-rule="nonzero"/></clipPath><clipPath id="9c39234f76"><path d="M 3.421875 193.726562 L 589.898438 -12.714844 L 806.800781 603.476562 L 220.320312 809.917969 Z M 3.421875 193.726562 " clip-rule="nonzero"/></clipPath><clipPath id="1cb13434b8"><path d="M 3.421875 193.726562 L 589.898438 -12.714844 L 806.800781 603.476562 L 220.320312 809.917969 Z M 3.421875 193.726562 " clip-rule="nonzero"/></clipPath></defs><g clip-path="url(#1fefb4e951)"><g clip-path="url(#9c39234f76)"><g clip-path="url(#1cb13434b8)"><path fill="#f6f6f6" d="M 627.378906 366.625 L 593.425781 378.574219 L 581.476562 344.625 C 578.203125 335.324219 567.863281 330.273438 558.449219 333.585938 C 549.148438 336.863281 544.101562 347.203125 547.414062 356.613281 L 559.363281 390.566406 L 525.414062 402.515625 C 516.113281 405.789062 511.066406 416.128906 514.378906 425.542969 C 517.652344 434.84375 527.992188 439.890625 537.402344 436.578125 L 571.355469 424.628906 L 583.304688 458.578125 C 586.578125 467.878906 596.921875 472.929688 606.332031 469.613281 C 615.632812 466.339844 620.679688 456 617.367188 446.589844 L 605.417969 412.636719 L 639.367188 400.6875 C 648.667969 397.414062 653.71875 387.074219 650.40625 377.660156 C 647.132812 368.359375 636.789062 363.3125 627.378906 366.625 Z M 627.378906 366.625 L 593.425781 378.574219 L 581.476562 344.625 C 578.203125 335.324219 567.863281 330.273438 558.449219 333.585938 C 549.148438 336.863281 544.101562 347.203125 547.414062 356.613281 L 559.363281 390.566406 L 525.414062 402.515625 C 516.113281 405.789062 511.066406 416.128906 514.378906 425.542969 C 517.652344 434.84375 527.992188 439.890625 537.402344 436.578125 L 571.355469 424.628906 L 583.304688 458.578125 C 586.578125 467.878906 596.921875 472.929688 606.332031 469.613281 C 615.632812 466.339844 620.679688 456 617.367188 446.589844 L 605.417969 412.636719 L 639.367188 400.6875 C 648.667969 397.414062 653.71875 387.074219 650.40625 377.660156 C 647.132812 368.359375 636.789062 363.3125 627.378906 366.625 Z M 661.265625 281.152344 C 657.976562 217.074219 639.128906 157.09375 569.867188 117.375 C 436.761719 41.191406 333.414062 205.515625 333.414062 205.515625 C 213.882812 159.3125 137.660156 199.996094 100.625 301.5625 C 70.546875 383.554688 146.449219 485.414062 201.210938 558.699219 C 214.3125 576.25 225.964844 592.171875 234.867188 605.660156 C 280.828125 676.125 315.898438 717.804688 369.359375 738.023438 C 395.976562 748.171875 408.570312 710.242188 422.253906 670.417969 C 433.925781 635.957031 446.019531 599.839844 468.320312 591.992188 C 490.167969 584.300781 521.84375 604.886719 552.265625 624.402344 C 587.582031 647.105469 620.894531 668.75 635.25 644.429688 C 657.460938 606.640625 664.828125 582.132812 662.832031 521.003906 C 716.109375 485.25 740.550781 416.953125 718.304688 353.757812 C 707.382812 322.722656 687.015625 297.777344 661.265625 281.152344 Z M 623.984375 579.511719 C 621.410156 591.875 617.269531 602.652344 609.726562 616.640625 C 602.273438 613.347656 592.328125 607.277344 578.957031 598.632812 C 576.71875 597.28125 574.632812 596 572.3125 594.425781 C 558.410156 585.339844 541.96875 574.757812 526.324219 567.167969 C 509.84375 558.988281 483.070312 548.390625 456.367188 558.042969 C 429.925781 567.347656 415.460938 592.085938 407.328125 609.054688 C 399.703125 624.960938 393.515625 643.507812 388.21875 659.226562 C 387.320312 661.683594 386.574219 664.214844 385.675781 666.671875 C 380.410156 682.125 376.269531 692.902344 372.519531 700.140625 C 335.792969 683.09375 307.296875 650.433594 265.234375 586.03125 C 255.710938 571.5 242.949219 554.207031 229.730469 536.695312 C 226 531.460938 222.085938 526.414062 218.351562 521.179688 C 200.863281 497.617188 182.9375 472.445312 167.632812 446.851562 C 135.324219 392.992188 121.796875 347.757812 134.304688 313.886719 C 150.683594 268.832031 173.765625 242.824219 200.621094 231.105469 C 227.507812 219.121094 265.921875 218.066406 320.1875 239.136719 C 336.332031 245.292969 354.601562 239.238281 363.753906 224.808594 L 363.671875 224.585938 C 363.820312 224.28125 364.117188 224.050781 364.332031 223.597656 C 365.03125 222.722656 366.023438 221.238281 367.308594 219.527344 C 369.988281 215.6875 373.992188 210.25 379.261719 204.113281 C 389.941406 191.160156 404.964844 175.167969 423.148438 161.714844 C 459.515625 134.808594 502.667969 120.375 552.128906 148.550781 C 581.792969 165.5625 599.003906 186.203125 609.335938 208.757812 C 617.011719 225.199219 621.523438 243.382812 623.855469 263.59375 C 595.726562 255.234375 564.617188 255.226562 534.699219 265.757812 C 459.628906 292.183594 420.273438 374.292969 446.699219 449.363281 C 472.769531 523.429688 553.183594 562.621094 627.28125 538.429688 C 627.273438 555.9375 626.136719 568.804688 623.984375 579.511719 Z M 618.355469 503.414062 C 562.21875 523.175781 500.410156 493.550781 480.652344 437.414062 C 460.890625 381.277344 490.515625 319.46875 546.652344 299.710938 C 602.789062 279.949219 664.59375 309.574219 684.355469 365.710938 C 704.117188 421.847656 674.492188 483.652344 618.355469 503.414062 Z M 627.378906 366.625 L 593.425781 378.574219 L 581.476562 344.625 C 578.203125 335.324219 567.863281 330.273438 558.449219 333.585938 C 549.148438 336.863281 544.101562 347.203125 547.414062 356.613281 L 559.363281 390.566406 L 525.414062 402.515625 C 516.113281 405.789062 511.066406 416.128906 514.378906 425.542969 C 517.652344 434.84375 527.992188 439.890625 537.402344 436.578125 L 571.355469 424.628906 L 583.304688 458.578125 C 586.578125 467.878906 596.921875 472.929688 606.332031 469.613281 C 615.632812 466.339844 620.679688 456 617.367188 446.589844 L 605.417969 412.636719 L 639.367188 400.6875 C 648.667969 397.414062 653.71875 387.074219 650.40625 377.660156 C 647.132812 368.359375 636.789062 363.3125 627.378906 366.625 Z M 627.378906 366.625 L 593.425781 378.574219 L 581.476562 344.625 C 578.203125 335.324219 567.863281 330.273438 558.449219 333.585938 C 549.148438 336.863281 544.101562 347.203125 547.414062 356.613281 L 559.363281 390.566406 L 525.414062 402.515625 C 516.113281 405.789062 511.066406 416.128906 514.378906 425.542969 C 517.652344 434.84375 527.992188 439.890625 537.402344 436.578125 L 571.355469 424.628906 L 583.304688 458.578125 C 586.578125 467.878906 596.921875 472.929688 606.332031 469.613281 C 615.632812 466.339844 620.679688 456 617.367188 446.589844 L 605.417969 412.636719 L 639.367188 400.6875 C 648.667969 397.414062 653.71875 387.074219 650.40625 377.660156 C 647.132812 368.359375 636.789062 363.3125 627.378906 366.625 Z M 627.378906 366.625 L 593.425781 378.574219 L 581.476562 344.625 C 578.203125 335.324219 567.863281 330.273438 558.449219 333.585938 C 549.148438 336.863281 544.101562 347.203125 547.414062 356.613281 L 559.363281 390.566406 L 525.414062 402.515625 C 516.113281 405.789062 511.066406 416.128906 514.378906 425.542969 C 517.652344 434.84375 527.992188 439.890625 537.402344 436.578125 L 571.355469 424.628906 L 583.304688 458.578125 C 586.578125 467.878906 596.921875 472.929688 606.332031 469.613281 C 615.632812 466.339844 620.679688 456 617.367188 446.589844 L 605.417969 412.636719 L 639.367188 400.6875 C 648.667969 397.414062 653.71875 387.074219 650.40625 377.660156 C 647.132812 368.359375 636.789062 363.3125 627.378906 366.625 Z M 627.378906 366.625 " fill-opacity="1" fill-rule="nonzero"/></g></g></g></svg>