<svg xmlns="http://www.w3.org/2000/svg" xmlns:xlink="http://www.w3.org/1999/xlink" width="1080" zoomAndPan="magnify" viewBox="0 0 810 809.999993" height="1080" preserveAspectRatio="xMidYMid meet" version="1.0"><defs><clipPath id="b77cc2ba5c"><path d="M 42 56 L 702 56 L 702 795 L 42 795 Z M 42 56 " clip-rule="nonzero"/></clipPath><clipPath id="8b4c5bc47c"><path d="M 15.585938 190.867188 L 656.003906 0.0195312 L 840.429688 618.871094 L 200.011719 809.722656 Z M 15.585938 190.867188 " clip-rule="nonzero"/></clipPath><clipPath id="a87a10790e"><path d="M 15.585938 190.867188 L 656.003906 0.0195312 L 840.429688 618.871094 L 200.011719 809.722656 Z M 15.585938 190.867188 " clip-rule="nonzero"/></clipPath></defs><g clip-path="url(#b77cc2ba5c)"><g clip-path="url(#8b4c5bc47c)"><g clip-path="url(#a87a10790e)"><path fill="#f6f6f6" d="M 399.660156 192.636719 C 399.867188 193.335938 400.007812 194.050781 400.074219 194.78125 C 400.144531 195.507812 400.140625 196.234375 400.0625 196.964844 C 399.988281 197.691406 399.84375 198.40625 399.628906 199.101562 C 399.410156 199.800781 399.128906 200.472656 398.78125 201.117188 C 398.433594 201.757812 398.027344 202.363281 397.558594 202.925781 C 397.09375 203.488281 396.574219 204 396.007812 204.460938 C 395.441406 204.921875 394.832031 205.324219 394.1875 205.667969 C 393.539062 206.007812 392.867188 206.285156 392.164062 206.492188 L 360.140625 216.035156 C 359.441406 216.246094 358.726562 216.382812 358 216.453125 C 357.269531 216.519531 356.542969 216.515625 355.816406 216.441406 C 355.085938 216.367188 354.375 216.21875 353.675781 216.003906 C 352.976562 215.789062 352.304688 215.507812 351.664062 215.160156 C 351.019531 214.8125 350.414062 214.402344 349.851562 213.9375 C 349.289062 213.46875 348.777344 212.953125 348.316406 212.386719 C 347.855469 211.816406 347.453125 211.210938 347.113281 210.5625 C 346.769531 209.917969 346.496094 209.242188 346.285156 208.542969 C 346.078125 207.839844 345.9375 207.125 345.871094 206.398438 C 345.800781 205.671875 345.804688 204.941406 345.882812 204.214844 C 345.957031 203.488281 346.101562 202.773438 346.316406 202.074219 C 346.535156 201.375 346.816406 200.707031 347.164062 200.0625 C 347.511719 199.417969 347.917969 198.816406 348.386719 198.253906 C 348.851562 197.691406 349.371094 197.175781 349.9375 196.714844 C 350.503906 196.253906 351.113281 195.855469 351.757812 195.511719 C 352.40625 195.171875 353.078125 194.894531 353.78125 194.6875 L 385.804688 185.144531 C 386.503906 184.933594 387.21875 184.796875 387.945312 184.726562 C 388.675781 184.660156 389.402344 184.664062 390.128906 184.738281 C 390.859375 184.8125 391.570312 184.960938 392.269531 185.175781 C 392.96875 185.390625 393.640625 185.671875 394.28125 186.019531 C 394.925781 186.367188 395.53125 186.777344 396.09375 187.242188 C 396.65625 187.710938 397.167969 188.226562 397.628906 188.792969 C 398.089844 189.363281 398.492188 189.96875 398.832031 190.617188 C 399.175781 191.261719 399.449219 191.9375 399.660156 192.636719 Z M 373.078125 142.445312 L 341.054688 151.988281 C 340.355469 152.199219 339.679688 152.472656 339.035156 152.8125 C 338.386719 153.15625 337.78125 153.558594 337.210938 154.019531 C 336.644531 154.480469 336.128906 154.992188 335.660156 155.554688 C 335.195312 156.117188 334.785156 156.722656 334.4375 157.363281 C 334.089844 158.007812 333.808594 158.679688 333.59375 159.378906 C 333.378906 160.078125 333.230469 160.789062 333.15625 161.515625 C 333.082031 162.246094 333.078125 162.972656 333.144531 163.699219 C 333.214844 164.429688 333.351562 165.144531 333.5625 165.84375 C 333.769531 166.546875 334.046875 167.21875 334.386719 167.867188 C 334.730469 168.511719 335.128906 169.121094 335.589844 169.6875 C 336.054688 170.253906 336.566406 170.773438 337.128906 171.238281 C 337.691406 171.707031 338.292969 172.113281 338.9375 172.460938 C 339.582031 172.808594 340.253906 173.089844 340.949219 173.304688 C 341.648438 173.523438 342.363281 173.667969 343.089844 173.742188 C 343.816406 173.816406 344.546875 173.820312 345.273438 173.753906 C 346.003906 173.683594 346.714844 173.546875 347.417969 173.335938 L 379.441406 163.792969 C 380.140625 163.585938 380.816406 163.308594 381.460938 162.96875 C 382.109375 162.625 382.714844 162.226562 383.285156 161.765625 C 383.851562 161.304688 384.367188 160.789062 384.835938 160.226562 C 385.300781 159.664062 385.710938 159.0625 386.058594 158.417969 C 386.40625 157.773438 386.6875 157.105469 386.902344 156.40625 C 387.117188 155.707031 387.265625 154.992188 387.339844 154.265625 C 387.414062 153.539062 387.417969 152.808594 387.351562 152.082031 C 387.28125 151.355469 387.144531 150.640625 386.933594 149.9375 C 386.726562 149.238281 386.449219 148.5625 386.109375 147.917969 C 385.765625 147.269531 385.367188 146.664062 384.90625 146.09375 C 384.445312 145.527344 383.929688 145.011719 383.367188 144.542969 C 382.804688 144.078125 382.203125 143.671875 381.558594 143.320312 C 380.914062 142.972656 380.246094 142.691406 379.546875 142.476562 C 378.847656 142.261719 378.132812 142.117188 377.40625 142.039062 C 376.679688 141.964844 375.949219 141.960938 375.222656 142.03125 C 374.496094 142.097656 373.78125 142.234375 373.078125 142.445312 Z M 398.527344 227.839844 L 366.503906 237.386719 C 365.804688 237.59375 365.128906 237.867188 364.484375 238.210938 C 363.835938 238.550781 363.230469 238.953125 362.660156 239.414062 C 362.09375 239.875 361.578125 240.386719 361.109375 240.949219 C 360.644531 241.515625 360.234375 242.117188 359.886719 242.761719 C 359.539062 243.402344 359.257812 244.074219 359.042969 244.773438 C 358.828125 245.472656 358.679688 246.1875 358.605469 246.914062 C 358.53125 247.640625 358.527344 248.367188 358.59375 249.097656 C 358.664062 249.824219 358.800781 250.539062 359.011719 251.242188 C 359.21875 251.941406 359.496094 252.613281 359.835938 253.261719 C 360.179688 253.910156 360.578125 254.515625 361.039062 255.082031 C 361.5 255.652344 362.015625 256.167969 362.578125 256.636719 C 363.140625 257.101562 363.742188 257.507812 364.386719 257.855469 C 365.03125 258.203125 365.699219 258.488281 366.398438 258.703125 C 367.097656 258.917969 367.8125 259.0625 368.539062 259.140625 C 369.265625 259.214844 369.996094 259.21875 370.722656 259.148438 C 371.449219 259.082031 372.164062 258.941406 372.867188 258.734375 L 404.890625 249.191406 C 405.589844 248.980469 406.265625 248.707031 406.910156 248.363281 C 407.558594 248.023438 408.164062 247.621094 408.734375 247.160156 C 409.300781 246.699219 409.816406 246.1875 410.285156 245.625 C 410.75 245.0625 411.160156 244.457031 411.507812 243.816406 C 411.855469 243.171875 412.136719 242.5 412.351562 241.800781 C 412.566406 241.101562 412.714844 240.390625 412.789062 239.660156 C 412.863281 238.933594 412.867188 238.207031 412.800781 237.476562 C 412.730469 236.75 412.59375 236.035156 412.382812 235.335938 C 412.175781 234.632812 411.898438 233.960938 411.558594 233.3125 C 411.214844 232.667969 410.816406 232.058594 410.355469 231.492188 C 409.890625 230.925781 409.378906 230.40625 408.816406 229.941406 C 408.253906 229.472656 407.652344 229.066406 407.007812 228.71875 C 406.363281 228.371094 405.691406 228.089844 404.996094 227.875 C 404.296875 227.65625 403.582031 227.511719 402.855469 227.4375 C 402.128906 227.363281 401.398438 227.359375 400.671875 227.425781 C 399.945312 227.492188 399.230469 227.632812 398.527344 227.839844 Z M 142.339844 304.1875 C 141.289062 304.5 140.226562 304.761719 139.152344 304.96875 C 138.078125 305.179688 136.996094 305.332031 135.90625 305.433594 C 134.816406 305.535156 133.726562 305.585938 132.632812 305.578125 C 131.539062 305.574219 130.445312 305.515625 129.355469 305.402344 C 128.269531 305.289062 127.1875 305.125 126.117188 304.90625 C 125.042969 304.6875 123.984375 304.417969 122.9375 304.09375 C 121.894531 303.769531 120.867188 303.398438 119.855469 302.972656 C 118.847656 302.550781 117.863281 302.078125 116.898438 301.558594 C 115.9375 301.035156 115.003906 300.46875 114.09375 299.855469 C 113.1875 299.246094 112.3125 298.589844 111.46875 297.890625 C 110.628906 297.191406 109.820312 296.453125 109.050781 295.675781 C 108.28125 294.898438 107.550781 294.085938 106.863281 293.238281 C 106.171875 292.386719 105.523438 291.507812 104.921875 290.59375 C 104.316406 289.679688 103.761719 288.738281 103.25 287.773438 C 102.738281 286.804688 102.273438 285.8125 101.863281 284.800781 C 101.449219 283.789062 101.085938 282.757812 100.773438 281.707031 C 100.460938 280.660156 100.199219 279.597656 99.992188 278.523438 C 99.78125 277.449219 99.628906 276.367188 99.523438 275.277344 C 99.421875 274.1875 99.375 273.09375 99.378906 272 C 99.386719 270.90625 99.445312 269.816406 99.558594 268.726562 C 99.667969 267.636719 99.835938 266.558594 100.054688 265.484375 C 100.273438 264.414062 100.542969 263.355469 100.867188 262.308594 C 101.191406 261.261719 101.5625 260.234375 101.988281 259.226562 C 102.410156 258.21875 102.882812 257.230469 103.402344 256.269531 C 103.921875 255.304688 104.488281 254.371094 105.101562 253.464844 C 105.714844 252.558594 106.371094 251.683594 107.070312 250.839844 C 107.765625 249.996094 108.503906 249.191406 109.28125 248.421875 C 110.0625 247.652344 110.875 246.921875 111.722656 246.230469 C 112.574219 245.539062 113.453125 244.894531 114.367188 244.289062 C 115.28125 243.6875 116.21875 243.128906 117.1875 242.617188 C 118.15625 242.105469 119.144531 241.644531 120.160156 241.230469 C 121.171875 240.816406 122.203125 240.453125 123.253906 240.140625 C 124.300781 239.828125 125.363281 239.566406 126.4375 239.359375 C 127.511719 239.152344 128.59375 238.996094 129.683594 238.894531 C 130.773438 238.792969 131.863281 238.746094 132.957031 238.75 C 134.054688 238.753906 135.144531 238.8125 136.234375 238.925781 C 137.320312 239.039062 138.402344 239.203125 139.476562 239.421875 C 140.546875 239.640625 141.605469 239.914062 142.652344 240.234375 C 143.699219 240.558594 144.726562 240.933594 145.734375 241.355469 C 146.742188 241.78125 147.730469 242.25 148.691406 242.773438 C 149.652344 243.292969 150.589844 243.859375 151.496094 244.472656 C 152.402344 245.085938 153.277344 245.738281 154.121094 246.4375 C 154.960938 247.136719 155.769531 247.875 156.539062 248.652344 C 157.308594 249.429688 158.039062 250.242188 158.730469 251.09375 C 159.417969 251.941406 160.066406 252.824219 160.667969 253.734375 C 161.273438 254.648438 161.832031 255.589844 162.34375 256.558594 C 162.851562 257.523438 163.316406 258.515625 163.730469 259.527344 C 164.144531 260.542969 164.507812 261.574219 164.820312 262.621094 C 165.128906 263.671875 165.390625 264.730469 165.597656 265.804688 C 165.804688 266.878906 165.957031 267.960938 166.058594 269.050781 C 166.160156 270.140625 166.207031 271.234375 166.203125 272.328125 C 166.195312 273.421875 166.136719 274.511719 166.023438 275.601562 C 165.910156 276.6875 165.742188 277.769531 165.523438 278.839844 C 165.304688 279.910156 165.035156 280.96875 164.710938 282.015625 C 164.386719 283.0625 164.015625 284.089844 163.589844 285.097656 C 163.167969 286.105469 162.695312 287.089844 162.175781 288.054688 C 161.652344 289.015625 161.085938 289.949219 160.476562 290.855469 C 159.863281 291.765625 159.207031 292.636719 158.511719 293.480469 C 157.8125 294.324219 157.074219 295.128906 156.296875 295.898438 C 155.519531 296.671875 154.707031 297.402344 153.859375 298.089844 C 153.011719 298.78125 152.128906 299.429688 151.21875 300.03125 C 150.304688 300.636719 149.367188 301.195312 148.398438 301.707031 C 147.433594 302.21875 146.441406 302.679688 145.429688 303.097656 C 144.417969 303.511719 143.386719 303.875 142.339844 304.1875 Z M 143.46875 268.984375 C 143.261719 268.28125 142.984375 267.609375 142.644531 266.960938 C 142.300781 266.316406 141.902344 265.707031 141.441406 265.140625 C 140.980469 264.574219 140.464844 264.054688 139.902344 263.589844 C 139.339844 263.121094 138.738281 262.714844 138.09375 262.367188 C 137.449219 262.019531 136.78125 261.738281 136.082031 261.523438 C 135.382812 261.304688 134.667969 261.160156 133.941406 261.085938 C 133.214844 261.011719 132.484375 261.007812 131.757812 261.074219 C 131.03125 261.144531 130.316406 261.28125 129.613281 261.488281 C 128.914062 261.699219 128.238281 261.972656 127.59375 262.316406 C 126.945312 262.65625 126.339844 263.058594 125.769531 263.519531 C 125.203125 263.980469 124.6875 264.492188 124.21875 265.054688 C 123.753906 265.621094 123.347656 266.222656 122.996094 266.867188 C 122.648438 267.507812 122.367188 268.179688 122.152344 268.878906 C 121.9375 269.578125 121.792969 270.292969 121.714844 271.019531 C 121.640625 271.746094 121.636719 272.472656 121.707031 273.203125 C 121.773438 273.929688 121.910156 274.644531 122.121094 275.347656 C 122.328125 276.046875 122.605469 276.71875 122.945312 277.367188 C 123.289062 278.015625 123.691406 278.621094 124.152344 279.1875 C 124.613281 279.757812 125.125 280.273438 125.6875 280.738281 C 126.25 281.207031 126.851562 281.613281 127.496094 281.960938 C 128.140625 282.308594 128.8125 282.59375 129.511719 282.808594 C 130.207031 283.023438 130.921875 283.167969 131.648438 283.242188 C 132.375 283.320312 133.105469 283.324219 133.832031 283.253906 C 134.5625 283.1875 135.277344 283.046875 135.976562 282.839844 C 136.675781 282.628906 137.351562 282.355469 137.996094 282.011719 C 138.644531 281.671875 139.25 281.269531 139.816406 280.808594 C 140.386719 280.347656 140.902344 279.835938 141.367188 279.269531 C 141.835938 278.707031 142.242188 278.105469 142.589844 277.460938 C 142.9375 276.820312 143.21875 276.148438 143.4375 275.449219 C 143.652344 274.75 143.796875 274.039062 143.871094 273.308594 C 143.949219 272.582031 143.953125 271.855469 143.882812 271.128906 C 143.816406 270.398438 143.679688 269.683594 143.46875 268.984375 Z M 675.148438 64.046875 L 700.597656 149.445312 C 700.804688 150.144531 700.945312 150.859375 701.011719 151.589844 C 701.078125 152.316406 701.078125 153.042969 701 153.773438 C 700.925781 154.5 700.78125 155.210938 700.566406 155.910156 C 700.347656 156.609375 700.066406 157.28125 699.71875 157.925781 C 699.371094 158.566406 698.964844 159.171875 698.496094 159.734375 C 698.03125 160.296875 697.511719 160.808594 696.945312 161.269531 C 696.378906 161.730469 695.769531 162.132812 695.125 162.472656 C 694.476562 162.816406 693.804688 163.089844 693.101562 163.300781 L 639.730469 179.207031 C 639.03125 179.414062 638.316406 179.554688 637.585938 179.621094 C 636.859375 179.691406 636.128906 179.6875 635.402344 179.609375 C 634.675781 179.535156 633.960938 179.390625 633.261719 179.175781 C 632.566406 178.957031 631.894531 178.675781 631.25 178.328125 C 630.605469 177.980469 630.003906 177.574219 629.441406 177.105469 C 628.878906 176.640625 628.367188 176.121094 627.90625 175.554688 C 627.441406 174.988281 627.042969 174.378906 626.699219 173.734375 C 626.359375 173.085938 626.082031 172.414062 625.875 171.710938 L 622.695312 161.039062 L 579.996094 173.761719 C 580.304688 174.8125 580.566406 175.871094 580.773438 176.945312 C 580.980469 178.019531 581.132812 179.101562 581.234375 180.191406 C 581.335938 181.28125 581.382812 182.375 581.378906 183.46875 C 581.371094 184.5625 581.3125 185.652344 581.199219 186.742188 C 581.085938 187.828125 580.917969 188.910156 580.699219 189.980469 C 580.480469 191.054688 580.210938 192.113281 579.886719 193.15625 C 579.5625 194.203125 579.191406 195.230469 578.765625 196.238281 C 578.34375 197.246094 577.871094 198.230469 577.351562 199.195312 C 576.828125 200.15625 576.265625 201.089844 575.652344 202 C 575.039062 202.90625 574.382812 203.78125 573.6875 204.621094 C 572.988281 205.464844 572.25 206.269531 571.472656 207.042969 C 570.695312 207.8125 569.882812 208.542969 569.035156 209.230469 C 568.1875 209.921875 567.304688 210.570312 566.394531 211.171875 C 565.480469 211.777344 564.542969 212.335938 563.574219 212.847656 C 562.609375 213.359375 561.617188 213.820312 560.605469 214.238281 C 559.59375 214.652344 558.5625 215.015625 557.515625 215.328125 L 523.523438 225.460938 C 523.441406 227.167969 523.226562 228.863281 522.882812 230.539062 C 522.535156 232.214844 522.066406 233.855469 521.46875 235.460938 C 520.871094 237.066406 520.15625 238.613281 519.320312 240.109375 C 518.484375 241.601562 517.539062 243.023438 516.484375 244.371094 C 515.429688 245.71875 514.28125 246.980469 513.03125 248.152344 C 511.785156 249.324219 510.453125 250.390625 509.039062 251.359375 C 507.628906 252.324219 506.148438 253.175781 504.605469 253.917969 C 503.058594 254.65625 501.46875 255.269531 499.828125 255.765625 L 465.839844 265.894531 C 465.753906 267.605469 465.539062 269.296875 465.195312 270.972656 C 464.851562 272.652344 464.382812 274.292969 463.785156 275.894531 C 463.1875 277.5 462.46875 279.050781 461.636719 280.542969 C 460.800781 282.039062 459.855469 283.457031 458.800781 284.808594 C 457.746094 286.15625 456.59375 287.414062 455.347656 288.585938 C 454.097656 289.757812 452.769531 290.828125 451.355469 291.792969 C 449.941406 292.761719 448.464844 293.613281 446.917969 294.351562 C 445.375 295.089844 443.785156 295.707031 442.144531 296.199219 L 387.519531 312.480469 L 400.683594 391.355469 C 400.792969 392.019531 400.84375 392.6875 400.832031 393.363281 C 400.820312 394.035156 400.75 394.703125 400.617188 395.363281 C 400.488281 396.023438 400.296875 396.664062 400.046875 397.292969 C 399.800781 397.917969 399.5 398.515625 399.140625 399.085938 C 398.785156 399.660156 398.378906 400.191406 397.925781 400.691406 C 397.472656 401.1875 396.980469 401.640625 396.441406 402.050781 C 395.90625 402.457031 395.339844 402.8125 394.738281 403.117188 C 394.140625 403.425781 393.515625 403.671875 392.871094 403.867188 L 368.832031 411.03125 L 369.441406 580.453125 C 369.445312 581.433594 369.511719 582.40625 369.648438 583.378906 C 369.78125 584.347656 369.980469 585.304688 370.242188 586.246094 C 370.503906 587.191406 370.828125 588.113281 371.214844 589.011719 C 371.601562 589.914062 372.046875 590.78125 372.550781 591.621094 C 373.050781 592.464844 373.609375 593.265625 374.21875 594.03125 C 374.828125 594.796875 375.488281 595.519531 376.195312 596.195312 C 376.902344 596.875 377.652344 597.5 378.445312 598.078125 C 379.234375 598.652344 380.0625 599.175781 380.921875 599.640625 L 415.320312 618.25 C 470.074219 604.507812 520.289062 636.429688 538.496094 697.523438 C 538.707031 698.222656 538.84375 698.9375 538.914062 699.664062 C 538.980469 700.394531 538.976562 701.121094 538.902344 701.847656 C 538.828125 702.574219 538.679688 703.289062 538.464844 703.988281 C 538.25 704.6875 537.96875 705.359375 537.621094 706 C 537.273438 706.644531 536.863281 707.246094 536.398438 707.8125 C 535.929688 708.375 535.414062 708.886719 534.847656 709.347656 C 534.277344 709.808594 533.671875 710.210938 533.023438 710.550781 C 532.378906 710.894531 531.703125 711.167969 531.003906 711.378906 L 253.464844 794.085938 C 252.765625 794.296875 252.050781 794.433594 251.320312 794.5 C 250.59375 794.570312 249.867188 794.566406 249.136719 794.492188 C 248.410156 794.414062 247.699219 794.269531 247 794.054688 C 246.300781 793.839844 245.628906 793.558594 244.984375 793.210938 C 244.34375 792.859375 243.738281 792.453125 243.175781 791.988281 C 242.613281 791.519531 242.101562 791.003906 241.640625 790.4375 C 241.179688 789.867188 240.777344 789.261719 240.433594 788.613281 C 240.09375 787.96875 239.820312 787.292969 239.609375 786.59375 L 210.980469 690.523438 C 210.769531 689.820312 210.632812 689.105469 210.5625 688.378906 C 210.496094 687.648438 210.5 686.921875 210.574219 686.195312 C 210.648438 685.46875 210.796875 684.753906 211.011719 684.054688 C 211.226562 683.355469 211.507812 682.683594 211.855469 682.042969 C 212.203125 681.398438 212.613281 680.796875 213.078125 680.234375 C 213.546875 679.667969 214.0625 679.15625 214.628906 678.695312 C 215.199219 678.234375 215.804688 677.832031 216.453125 677.492188 C 217.097656 677.152344 217.773438 676.875 218.472656 676.667969 L 230.511719 673.078125 L 184.371094 372.933594 C 182.632812 373.421875 180.886719 373.867188 179.125 374.273438 C 177.367188 374.675781 175.601562 375.039062 173.824219 375.355469 C 172.046875 375.671875 170.265625 375.949219 168.472656 376.179688 C 166.683594 376.410156 164.890625 376.597656 163.089844 376.742188 C 161.292969 376.886719 159.488281 376.988281 157.6875 377.042969 C 155.882812 377.101562 154.078125 377.113281 152.273438 377.082031 C 150.46875 377.050781 148.664062 376.976562 146.863281 376.859375 C 145.0625 376.742188 143.265625 376.578125 141.472656 376.371094 C 139.679688 376.167969 137.894531 375.917969 136.113281 375.625 C 134.332031 375.332031 132.558594 374.996094 130.792969 374.617188 C 129.03125 374.238281 127.277344 373.816406 125.53125 373.355469 C 123.789062 372.890625 122.054688 372.382812 120.335938 371.835938 C 118.617188 371.289062 116.910156 370.699219 115.21875 370.066406 C 113.527344 369.4375 111.855469 368.765625 110.195312 368.054688 C 108.539062 367.339844 106.898438 366.589844 105.277344 365.796875 C 103.652344 365.003906 102.050781 364.175781 100.472656 363.304688 C 98.890625 362.4375 97.332031 361.527344 95.792969 360.582031 C 94.253906 359.636719 92.742188 358.65625 91.253906 357.636719 C 89.761719 356.617188 88.296875 355.5625 86.859375 354.472656 C 85.421875 353.382812 84.011719 352.257812 82.625 351.101562 C 81.242188 349.941406 79.886719 348.75 78.5625 347.527344 C 77.234375 346.300781 75.941406 345.046875 74.675781 343.757812 C 73.410156 342.472656 72.175781 341.152344 70.976562 339.804688 C 69.773438 338.460938 68.609375 337.082031 67.472656 335.679688 C 66.339844 334.277344 65.238281 332.84375 64.175781 331.386719 C 63.109375 329.929688 62.082031 328.449219 61.089844 326.941406 C 60.097656 325.433594 59.140625 323.902344 58.222656 322.351562 C 57.304688 320.796875 56.421875 319.222656 55.582031 317.625 C 54.738281 316.027344 53.9375 314.414062 53.175781 312.777344 C 52.410156 311.140625 51.6875 309.488281 51.003906 307.816406 C 50.320312 306.148438 49.679688 304.460938 49.078125 302.757812 C 48.476562 301.058594 47.917969 299.34375 47.398438 297.613281 C 46.878906 295.867188 46.40625 294.109375 45.972656 292.335938 C 45.542969 290.566406 45.152344 288.789062 44.808594 287 C 44.464844 285.207031 44.164062 283.410156 43.90625 281.609375 C 43.648438 279.804688 43.4375 277.996094 43.269531 276.179688 C 43.101562 274.367188 42.976562 272.546875 42.898438 270.726562 C 42.820312 268.90625 42.785156 267.085938 42.796875 265.261719 C 42.804688 263.441406 42.863281 261.621094 42.960938 259.800781 C 43.0625 257.980469 43.203125 256.164062 43.394531 254.351562 C 43.582031 252.539062 43.816406 250.734375 44.09375 248.933594 C 44.371094 247.132812 44.691406 245.339844 45.054688 243.554688 C 45.421875 241.765625 45.828125 239.992188 46.28125 238.226562 C 46.734375 236.460938 47.230469 234.707031 47.765625 232.96875 C 48.304688 231.226562 48.886719 229.5 49.507812 227.785156 C 50.128906 226.074219 50.792969 224.378906 51.5 222.699219 C 52.207031 221.019531 52.953125 219.355469 53.742188 217.714844 C 54.527344 216.070312 55.355469 214.445312 56.222656 212.84375 C 57.089844 211.242188 57.992188 209.660156 58.9375 208.101562 C 59.882812 206.542969 60.863281 205.007812 61.882812 203.5 C 62.902344 201.988281 63.960938 200.503906 65.050781 199.046875 C 66.144531 197.585938 67.273438 196.15625 68.433594 194.753906 C 69.597656 193.347656 70.792969 191.976562 72.023438 190.628906 C 73.253906 189.285156 74.515625 187.972656 75.808594 186.6875 C 77.101562 185.40625 78.429688 184.15625 79.785156 182.9375 C 81.140625 181.71875 82.523438 180.535156 83.9375 179.386719 C 85.351562 178.234375 86.792969 177.121094 88.257812 176.042969 C 89.726562 174.960938 91.222656 173.917969 92.742188 172.914062 C 94.261719 171.90625 95.804688 170.9375 97.371094 170.007812 C 98.9375 169.078125 100.523438 168.1875 102.136719 167.332031 C 103.746094 166.480469 105.375 165.667969 107.027344 164.894531 C 108.675781 164.121094 110.34375 163.390625 112.03125 162.699219 C 113.71875 162.007812 115.417969 161.359375 117.136719 160.753906 C 118.855469 160.144531 120.585938 159.578125 122.332031 159.058594 L 378.523438 82.710938 C 380.164062 82.226562 381.832031 81.871094 383.53125 81.644531 C 385.226562 81.417969 386.929688 81.320312 388.640625 81.355469 C 390.355469 81.390625 392.050781 81.558594 393.738281 81.855469 C 395.425781 82.152344 397.078125 82.578125 398.699219 83.128906 C 400.320312 83.679688 401.886719 84.351562 403.402344 85.144531 C 404.921875 85.9375 406.367188 86.839844 407.746094 87.855469 C 409.125 88.875 410.417969 89.988281 411.621094 91.203125 C 412.828125 92.417969 413.933594 93.71875 414.941406 95.101562 L 448.933594 84.972656 C 450.574219 84.488281 452.242188 84.132812 453.941406 83.90625 C 455.636719 83.679688 457.339844 83.582031 459.050781 83.621094 C 460.761719 83.65625 462.460938 83.820312 464.148438 84.117188 C 465.832031 84.414062 467.488281 84.839844 469.105469 85.390625 C 470.726562 85.941406 472.296875 86.613281 473.8125 87.40625 C 475.332031 88.199219 476.777344 89.105469 478.15625 90.121094 C 479.535156 91.136719 480.824219 92.25 482.03125 93.464844 C 483.238281 94.679688 484.34375 95.980469 485.351562 97.363281 L 519.339844 87.234375 C 520.390625 86.921875 521.453125 86.664062 522.527344 86.457031 C 523.601562 86.25 524.683594 86.097656 525.773438 85.996094 C 526.859375 85.894531 527.953125 85.847656 529.046875 85.851562 C 530.140625 85.859375 531.230469 85.917969 532.320312 86.03125 C 533.410156 86.144531 534.488281 86.3125 535.558594 86.53125 C 536.632812 86.75 537.691406 87.019531 538.734375 87.34375 C 539.78125 87.667969 540.808594 88.039062 541.816406 88.464844 C 542.824219 88.886719 543.8125 89.359375 544.773438 89.878906 C 545.734375 90.398438 546.671875 90.964844 547.578125 91.578125 C 548.484375 92.191406 549.359375 92.84375 550.199219 93.542969 C 551.042969 94.242188 551.851562 94.980469 552.621094 95.757812 C 553.390625 96.535156 554.121094 97.347656 554.8125 98.195312 C 555.5 99.042969 556.148438 99.925781 556.753906 100.835938 C 557.355469 101.75 557.914062 102.6875 558.425781 103.65625 C 558.9375 104.621094 559.402344 105.613281 559.816406 106.625 C 560.230469 107.636719 560.59375 108.667969 560.910156 109.714844 L 603.605469 96.992188 L 600.425781 86.316406 C 600.214844 85.613281 600.078125 84.902344 600.011719 84.171875 C 599.941406 83.445312 599.945312 82.714844 600.019531 81.988281 C 600.097656 81.261719 600.242188 80.546875 600.457031 79.847656 C 600.671875 79.152344 600.953125 78.480469 601.300781 77.835938 C 601.652344 77.191406 602.058594 76.589844 602.523438 76.027344 C 602.992188 75.464844 603.507812 74.953125 604.078125 74.492188 C 604.644531 74.027344 605.25 73.628906 605.898438 73.285156 C 606.542969 72.945312 607.21875 72.667969 607.917969 72.460938 L 661.292969 56.554688 C 661.992188 56.347656 662.707031 56.207031 663.433594 56.140625 C 664.164062 56.070312 664.890625 56.074219 665.617188 56.148438 C 666.347656 56.226562 667.058594 56.371094 667.757812 56.585938 C 668.457031 56.800781 669.128906 57.085938 669.773438 57.433594 C 670.414062 57.78125 671.019531 58.1875 671.582031 58.652344 C 672.144531 59.121094 672.65625 59.636719 673.117188 60.207031 C 673.578125 60.773438 673.980469 61.378906 674.320312 62.027344 C 674.664062 62.671875 674.9375 63.347656 675.148438 64.046875 Z M 179.59375 351.199219 L 190.210938 348.035156 L 190.265625 348.007812 L 211.613281 341.644531 L 160.71875 170.863281 L 128.695312 180.40625 C 127.300781 180.824219 125.914062 181.277344 124.539062 181.761719 C 123.164062 182.25 121.804688 182.769531 120.457031 183.320312 C 119.105469 183.875 117.773438 184.460938 116.453125 185.078125 C 115.132812 185.699219 113.828125 186.347656 112.539062 187.03125 C 111.25 187.710938 109.980469 188.425781 108.726562 189.171875 C 107.472656 189.914062 106.238281 190.691406 105.023438 191.496094 C 103.808594 192.300781 102.613281 193.132812 101.441406 194 C 100.265625 194.863281 99.113281 195.753906 97.984375 196.671875 C 96.851562 197.59375 95.746094 198.539062 94.660156 199.515625 C 93.578125 200.488281 92.515625 201.488281 91.480469 202.515625 C 90.445312 203.542969 89.4375 204.59375 88.453125 205.667969 C 87.46875 206.746094 86.511719 207.84375 85.582031 208.96875 C 84.652344 210.089844 83.75 211.234375 82.878906 212.402344 C 82.003906 213.566406 81.160156 214.753906 80.34375 215.964844 C 79.527344 217.171875 78.742188 218.398438 77.988281 219.644531 C 77.230469 220.894531 76.507812 222.15625 75.8125 223.441406 C 75.121094 224.722656 74.457031 226.019531 73.828125 227.335938 C 73.199219 228.648438 72.601562 229.980469 72.035156 231.324219 C 71.472656 232.667969 70.941406 234.023438 70.441406 235.394531 C 69.945312 236.761719 69.480469 238.144531 69.050781 239.539062 C 68.617188 240.929688 68.222656 242.332031 67.859375 243.746094 C 67.5 245.15625 67.171875 246.578125 66.878906 248.003906 C 66.589844 249.433594 66.332031 250.867188 66.109375 252.308594 C 65.886719 253.75 65.699219 255.195312 65.550781 256.644531 C 65.398438 258.09375 65.28125 259.546875 65.203125 261.003906 C 65.125 262.457031 65.078125 263.914062 65.070312 265.371094 C 65.0625 266.828125 65.089844 268.285156 65.152344 269.742188 C 65.214844 271.199219 65.3125 272.652344 65.449219 274.105469 C 65.582031 275.554688 65.75 277.003906 65.957031 278.445312 C 66.160156 279.890625 66.402344 281.328125 66.675781 282.757812 C 66.953125 284.191406 67.261719 285.613281 67.609375 287.03125 C 67.953125 288.445312 68.332031 289.855469 68.75 291.25 C 69.167969 292.648438 69.617188 294.035156 70.105469 295.40625 C 70.589844 296.78125 71.109375 298.144531 71.660156 299.492188 C 72.214844 300.84375 72.800781 302.175781 73.417969 303.496094 C 74.035156 304.816406 74.6875 306.121094 75.367188 307.410156 C 76.050781 308.699219 76.761719 309.96875 77.507812 311.222656 C 78.25 312.476562 79.027344 313.710938 79.832031 314.925781 C 80.636719 316.144531 81.46875 317.339844 82.332031 318.511719 C 83.199219 319.6875 84.089844 320.839844 85.007812 321.972656 C 85.929688 323.101562 86.875 324.210938 87.851562 325.292969 C 88.824219 326.378906 89.824219 327.4375 90.851562 328.472656 C 91.878906 329.507812 92.929688 330.519531 94.003906 331.503906 C 95.078125 332.488281 96.179688 333.445312 97.300781 334.375 C 98.425781 335.304688 99.570312 336.207031 100.734375 337.078125 C 101.902344 337.953125 103.089844 338.796875 104.300781 339.613281 C 105.507812 340.429688 106.734375 341.214844 107.980469 341.972656 C 109.226562 342.726562 110.492188 343.453125 111.777344 344.144531 C 113.058594 344.839844 114.355469 345.5 115.671875 346.128906 C 116.984375 346.757812 118.316406 347.355469 119.660156 347.921875 C 121.003906 348.484375 122.359375 349.019531 123.730469 349.515625 C 125.101562 350.015625 126.480469 350.476562 127.875 350.910156 C 129.269531 351.339844 130.671875 351.734375 132.082031 352.097656 C 133.496094 352.457031 134.914062 352.785156 136.34375 353.078125 C 137.773438 353.371094 139.207031 353.625 140.648438 353.847656 C 142.089844 354.070312 143.535156 354.253906 144.984375 354.40625 C 146.433594 354.558594 147.886719 354.671875 149.34375 354.753906 C 150.796875 354.832031 152.253906 354.875 153.710938 354.882812 C 155.171875 354.890625 156.628906 354.863281 158.085938 354.800781 C 159.539062 354.738281 160.996094 354.640625 162.445312 354.503906 C 163.898438 354.371094 165.34375 354.199219 166.789062 353.996094 C 168.230469 353.789062 169.667969 353.546875 171.101562 353.273438 C 172.53125 352.996094 173.957031 352.683594 175.371094 352.339844 C 176.789062 351.992188 178.195312 351.613281 179.59375 351.199219 Z M 231.558594 533.296875 L 248.089844 528.371094 L 259.429688 440.625 C 259.84375 437.359375 259.71875 434.117188 259.054688 430.898438 C 258.394531 427.675781 257.226562 424.648438 255.558594 421.8125 L 220.328125 362.304688 L 205.929688 366.597656 Z M 405.707031 725.472656 C 405.078125 724.425781 404.40625 723.40625 403.691406 722.417969 C 402.980469 721.425781 402.226562 720.464844 401.433594 719.535156 C 400.640625 718.605469 399.8125 717.710938 398.949219 716.851562 C 398.082031 715.988281 397.183594 715.164062 396.25 714.378906 C 395.316406 713.59375 394.351562 712.84375 393.355469 712.136719 C 392.359375 711.429688 391.339844 710.765625 390.289062 710.140625 C 389.238281 709.519531 388.164062 708.9375 387.066406 708.402344 C 385.96875 707.867188 384.851562 707.378906 383.714844 706.9375 C 382.578125 706.492188 381.421875 706.097656 380.253906 705.75 C 379.082031 705.402344 377.898438 705.101562 376.703125 704.851562 C 375.511719 704.601562 374.308594 704.398438 373.09375 704.25 C 371.882812 704.097656 370.667969 703.996094 369.449219 703.945312 C 368.226562 703.890625 367.007812 703.890625 365.789062 703.941406 C 364.570312 703.988281 363.351562 704.085938 362.140625 704.234375 C 360.929688 704.386719 359.726562 704.582031 358.53125 704.832031 C 357.335938 705.078125 356.152344 705.375 354.980469 705.722656 L 248.234375 737.53125 L 257.777344 769.554688 Z M 246.175781 691.65625 L 235.511719 694.835938 L 241.871094 716.183594 L 348.617188 684.371094 C 350.492188 683.816406 352.382812 683.34375 354.296875 682.957031 C 356.214844 682.566406 358.140625 682.261719 360.082031 682.042969 C 362.023438 681.824219 363.96875 681.6875 365.921875 681.640625 C 367.875 681.589844 369.828125 681.625 371.777344 681.746094 C 373.726562 681.871094 375.667969 682.074219 377.597656 682.367188 C 379.53125 682.660156 381.445312 683.035156 383.34375 683.496094 C 385.242188 683.953125 387.117188 684.496094 388.96875 685.117188 C 390.820312 685.742188 392.640625 686.445312 394.429688 687.230469 C 396.21875 688.011719 397.96875 688.871094 399.683594 689.808594 C 401.398438 690.746094 403.070312 691.757812 404.695312 692.839844 C 406.320312 693.921875 407.894531 695.074219 409.417969 696.296875 C 410.945312 697.515625 412.414062 698.800781 413.824219 700.152344 C 415.238281 701.5 416.585938 702.910156 417.875 704.378906 C 419.164062 705.847656 420.386719 707.367188 421.542969 708.941406 C 422.699219 710.519531 423.78125 712.140625 424.796875 713.8125 C 425.808594 715.480469 426.746094 717.191406 427.609375 718.945312 L 513.480469 693.355469 C 498.355469 655.695312 464.265625 626.664062 416.96875 640.757812 Z M 346.539062 406.492188 L 295.972656 339.761719 L 242.316406 355.75 L 274.71875 410.472656 C 276.175781 412.941406 277.421875 415.515625 278.453125 418.1875 C 279.484375 420.863281 280.289062 423.605469 280.871094 426.410156 C 281.449219 429.21875 281.792969 432.054688 281.902344 434.921875 C 282.011719 437.785156 281.886719 440.640625 281.527344 443.484375 L 269.25 538.40625 C 269.113281 539.476562 268.824219 540.503906 268.390625 541.488281 C 267.953125 542.472656 267.386719 543.375 266.6875 544.195312 C 265.988281 545.015625 265.1875 545.722656 264.285156 546.308594 C 263.382812 546.898438 262.417969 547.34375 261.382812 547.652344 L 234.972656 555.523438 L 252.0625 666.65625 L 384.835938 627.089844 L 370.328125 619.234375 C 368.589844 618.292969 366.921875 617.242188 365.324219 616.082031 C 363.726562 614.917969 362.214844 613.65625 360.789062 612.289062 C 359.359375 610.921875 358.03125 609.46875 356.796875 607.921875 C 355.566406 606.378906 354.445312 604.757812 353.429688 603.0625 C 352.414062 601.367188 351.519531 599.613281 350.738281 597.796875 C 349.960938 595.980469 349.308594 594.121094 348.78125 592.21875 C 348.25 590.316406 347.851562 588.386719 347.582031 586.429688 C 347.3125 584.472656 347.175781 582.503906 347.171875 580.53125 Z M 366.007812 318.890625 L 318.785156 332.964844 L 361.886719 389.855469 L 377.085938 385.324219 Z M 398.742188 111.550781 C 398.53125 110.851562 398.253906 110.179688 397.914062 109.53125 C 397.570312 108.886719 397.171875 108.277344 396.710938 107.710938 C 396.246094 107.144531 395.734375 106.625 395.171875 106.160156 C 394.609375 105.695312 394.007812 105.285156 393.363281 104.9375 C 392.71875 104.589844 392.050781 104.308594 391.351562 104.09375 C 390.652344 103.878906 389.9375 103.730469 389.210938 103.65625 C 388.484375 103.582031 387.757812 103.578125 387.027344 103.644531 C 386.300781 103.710938 385.585938 103.851562 384.882812 104.058594 L 182.066406 164.5 L 232.964844 335.285156 L 297.011719 316.207031 L 435.78125 274.851562 C 436.484375 274.644531 437.15625 274.367188 437.804688 274.023438 C 438.449219 273.683594 439.054688 273.28125 439.625 272.820312 C 440.191406 272.359375 440.707031 271.847656 441.175781 271.285156 C 441.640625 270.722656 442.046875 270.117188 442.398438 269.476562 C 442.746094 268.832031 443.027344 268.160156 443.242188 267.460938 C 443.457031 266.761719 443.601562 266.050781 443.679688 265.324219 C 443.753906 264.59375 443.757812 263.867188 443.691406 263.140625 C 443.621094 262.410156 443.484375 261.695312 443.277344 260.996094 Z M 469.148438 113.816406 C 468.941406 113.113281 468.664062 112.441406 468.324219 111.792969 C 467.980469 111.148438 467.578125 110.539062 467.117188 109.972656 C 466.65625 109.40625 466.144531 108.890625 465.582031 108.421875 C 465.019531 107.957031 464.414062 107.550781 463.773438 107.199219 C 463.128906 106.851562 462.457031 106.570312 461.761719 106.355469 C 461.0625 106.140625 460.347656 105.996094 459.621094 105.917969 C 458.894531 105.84375 458.164062 105.839844 457.4375 105.90625 C 456.710938 105.976562 455.996094 106.113281 455.292969 106.320312 L 423.269531 115.863281 L 461.445312 243.960938 L 493.46875 234.417969 C 494.167969 234.207031 494.839844 233.929688 495.488281 233.589844 C 496.132812 233.246094 496.742188 232.847656 497.308594 232.386719 C 497.875 231.921875 498.394531 231.410156 498.859375 230.847656 C 499.328125 230.285156 499.734375 229.683594 500.082031 229.039062 C 500.429688 228.394531 500.710938 227.726562 500.925781 227.027344 C 501.144531 226.328125 501.289062 225.613281 501.363281 224.886719 C 501.4375 224.160156 501.441406 223.433594 501.375 222.703125 C 501.308594 221.976562 501.167969 221.261719 500.960938 220.558594 Z M 539.558594 116.078125 C 539.351562 115.375 539.074219 114.703125 538.734375 114.058594 C 538.390625 113.410156 537.988281 112.804688 537.527344 112.234375 C 537.066406 111.667969 536.554688 111.152344 535.992188 110.683594 C 535.429688 110.21875 534.824219 109.8125 534.183594 109.464844 C 533.539062 109.117188 532.867188 108.832031 532.167969 108.617188 C 531.46875 108.402344 530.757812 108.257812 530.03125 108.179688 C 529.304688 108.105469 528.574219 108.101562 527.847656 108.167969 C 527.121094 108.238281 526.40625 108.375 525.703125 108.582031 L 493.679688 118.128906 L 519.128906 203.523438 L 551.152344 193.980469 C 551.851562 193.769531 552.527344 193.496094 553.171875 193.152344 C 553.820312 192.8125 554.425781 192.410156 554.992188 191.949219 C 555.5625 191.488281 556.078125 190.976562 556.542969 190.414062 C 557.011719 189.847656 557.417969 189.246094 557.765625 188.601562 C 558.113281 187.960938 558.394531 187.289062 558.613281 186.589844 C 558.828125 185.890625 558.972656 185.179688 559.050781 184.453125 C 559.125 183.722656 559.128906 182.996094 559.058594 182.269531 C 558.992188 181.539062 558.855469 180.824219 558.644531 180.125 Z M 609.96875 118.339844 L 567.269531 131.0625 L 573.632812 152.414062 L 616.332031 139.6875 Z M 656.980469 81.085938 L 624.957031 90.628906 L 644.042969 154.675781 L 676.066406 145.132812 Z M 656.980469 81.085938 " fill-opacity="1" fill-rule="nonzero"/></g></g></g></svg>