<svg xmlns="http://www.w3.org/2000/svg" xmlns:xlink="http://www.w3.org/1999/xlink" width="1080" zoomAndPan="magnify" viewBox="0 0 810 809.999993" height="1080" preserveAspectRatio="xMidYMid meet" version="1.0"><defs><clipPath id="413668813c"><path d="M 20.742188 81 L 809.742188 81 L 809.742188 712.5 L 20.742188 712.5 Z M 20.742188 81 " clip-rule="nonzero"/></clipPath></defs><path fill="#f6f6f6" d="M 95.382812 470.207031 C 78.617188 470.207031 64.964844 483.855469 64.964844 500.621094 C 64.964844 517.386719 78.617188 531.042969 95.382812 531.042969 C 112.144531 531.042969 125.804688 517.394531 125.804688 500.621094 C 125.804688 483.847656 112.15625 470.207031 95.382812 470.207031 Z M 95.382812 513.535156 C 88.265625 513.535156 82.464844 507.742188 82.464844 500.613281 C 82.464844 493.480469 88.257812 487.695312 95.382812 487.695312 C 102.503906 487.695312 108.304688 493.488281 108.304688 500.613281 C 108.304688 507.734375 102.511719 513.535156 95.382812 513.535156 Z M 95.382812 513.535156 " fill-opacity="1" fill-rule="nonzero"/><g clip-path="url(#413668813c)"><path fill="#f6f6f6" d="M 762.390625 379.566406 L 762.390625 112.5 C 762.390625 95.417969 748.496094 81.523438 731.414062 81.523438 L 51.71875 81.523438 C 34.636719 81.523438 20.742188 95.417969 20.742188 112.5 L 20.742188 525.847656 C 20.742188 542.96875 34.636719 556.910156 51.71875 556.910156 L 303.570312 556.910156 L 303.570312 631.914062 L 299.65625 631.914062 C 277.363281 631.914062 259.234375 650.042969 259.234375 672.328125 C 259.234375 694.617188 277.363281 712.753906 299.65625 712.753906 L 483.527344 712.753906 C 505.816406 712.753906 523.945312 694.625 523.945312 672.328125 C 523.945312 650.035156 505.816406 631.914062 483.527344 631.914062 L 479.609375 631.914062 L 479.609375 556.910156 L 531.558594 556.910156 C 556.390625 603.722656 605.589844 635.71875 662.1875 635.71875 C 743.683594 635.71875 810 569.414062 810 487.90625 C 810 445.09375 791.589844 406.585938 762.40625 379.566406 Z M 38.242188 112.5 C 38.242188 105.0625 44.28125 99.023438 51.71875 99.023438 L 731.414062 99.023438 C 738.851562 99.023438 744.890625 105.0625 744.890625 112.5 L 744.890625 365.46875 C 740.996094 362.828125 736.960938 360.375 732.816406 358.109375 L 732.816406 140.324219 C 732.816406 124.257812 719.742188 111.1875 703.679688 111.1875 L 79.542969 111.1875 C 63.425781 111.1875 50.320312 124.257812 50.320312 140.324219 L 50.320312 444.382812 L 38.242188 444.382812 Z M 520.917969 444.382812 L 67.820312 444.382812 L 67.820312 140.324219 C 67.820312 133.910156 73.078125 128.6875 79.542969 128.6875 L 703.679688 128.6875 C 710.089844 128.6875 715.316406 133.910156 715.316406 140.324219 L 715.316406 350.128906 C 698.796875 343.734375 680.917969 340.085938 662.175781 340.085938 C 595.808594 340.085938 539.539062 384.054688 520.917969 444.382812 Z M 483.527344 649.414062 C 496.164062 649.414062 506.445312 659.695312 506.445312 672.328125 C 506.445312 684.964844 496.164062 695.253906 483.527344 695.253906 L 299.65625 695.253906 C 287.023438 695.253906 276.734375 684.964844 276.734375 672.328125 C 276.734375 659.695312 287.023438 649.414062 299.65625 649.414062 Z M 321.078125 631.914062 L 321.078125 556.910156 L 462.109375 556.910156 L 462.109375 631.914062 Z M 471.035156 539.410156 C 470.972656 539.410156 470.921875 539.375 470.867188 539.375 L 312.335938 539.375 C 312.273438 539.375 312.222656 539.410156 312.167969 539.410156 L 51.71875 539.410156 C 44.28125 539.410156 38.242188 533.328125 38.242188 525.847656 L 38.242188 461.882812 L 516.796875 461.882812 C 515.28125 470.34375 514.355469 479.015625 514.355469 487.90625 C 514.355469 506.035156 517.792969 523.34375 523.796875 539.410156 L 471.023438 539.410156 Z M 662.1875 618.21875 C 590.332031 618.21875 531.863281 559.761719 531.863281 487.90625 C 531.863281 416.050781 590.332031 357.585938 662.1875 357.585938 C 734.039062 357.585938 792.5 416.050781 792.5 487.90625 C 792.5 559.761719 734.039062 618.21875 662.1875 618.21875 Z M 662.1875 618.21875 " fill-opacity="1" fill-rule="nonzero"/></g><path fill="#f6f6f6" d="M 681.277344 582.695312 L 643.074219 582.695312 C 638.246094 582.695312 634.324219 578.773438 634.324219 573.945312 L 634.324219 554.746094 C 628.621094 552.359375 623.25 549.242188 618.277344 545.421875 L 601.59375 555.054688 C 599.578125 556.210938 597.171875 556.515625 594.949219 555.929688 C 592.710938 555.335938 590.792969 553.863281 589.640625 551.851562 L 570.539062 518.769531 C 568.125 514.585938 569.558594 509.230469 573.742188 506.816406 L 590.390625 497.199219 C 589.980469 494.09375 589.78125 490.988281 589.78125 487.914062 C 589.78125 484.84375 589.980469 481.738281 590.390625 478.632812 L 573.742188 469.023438 C 571.738281 467.859375 570.265625 465.953125 569.664062 463.714844 C 569.058594 461.472656 569.375 459.085938 570.539062 457.070312 L 589.640625 423.980469 C 590.804688 421.976562 592.710938 420.507812 594.949219 419.902344 C 597.199219 419.308594 599.578125 419.621094 601.59375 420.777344 L 618.277344 430.410156 C 623.25 426.585938 628.621094 423.472656 634.324219 421.082031 L 634.324219 401.878906 C 634.324219 397.046875 638.246094 393.128906 643.074219 393.128906 L 681.277344 393.128906 C 686.109375 393.128906 690.027344 397.046875 690.027344 401.878906 L 690.027344 421.082031 C 695.734375 423.464844 701.105469 426.585938 706.074219 430.410156 L 722.761719 420.777344 C 724.773438 419.613281 727.171875 419.308594 729.402344 419.902344 C 731.644531 420.496094 733.558594 421.96875 734.714844 423.980469 L 753.816406 457.070312 C 754.96875 459.085938 755.285156 461.472656 754.691406 463.714844 C 754.09375 465.953125 752.625 467.871094 750.613281 469.023438 L 733.960938 478.632812 C 734.371094 481.738281 734.574219 484.84375 734.574219 487.914062 C 734.574219 490.988281 734.371094 494.09375 733.960938 497.199219 L 750.613281 506.816406 C 754.804688 509.230469 756.230469 514.585938 753.816406 518.769531 L 734.714844 551.851562 C 733.550781 553.855469 731.644531 555.324219 729.402344 555.929688 C 727.171875 556.542969 724.773438 556.21875 722.761719 555.054688 L 706.074219 545.421875 C 701.105469 549.242188 695.734375 552.359375 690.027344 554.746094 L 690.027344 573.945312 C 690.027344 578.773438 686.109375 582.695312 681.277344 582.695312 Z M 651.824219 565.195312 L 672.527344 565.195312 L 672.527344 548.632812 C 672.527344 544.808594 675.003906 541.429688 678.652344 540.285156 C 686.257812 537.894531 693.179688 533.871094 699.222656 528.324219 C 702.042969 525.734375 706.207031 525.277344 709.515625 527.195312 L 723.925781 535.515625 L 734.277344 517.585938 L 719.898438 509.292969 C 716.59375 507.382812 714.902344 503.542969 715.734375 499.816406 C 716.617188 495.824219 717.066406 491.816406 717.066406 487.914062 C 717.066406 484.011719 716.617188 480.003906 715.734375 476.015625 C 714.902344 472.289062 716.59375 468.445312 719.898438 466.539062 L 734.277344 458.246094 L 723.925781 440.316406 L 709.515625 448.636719 C 706.207031 450.535156 702.042969 450.089844 699.222656 447.507812 C 693.179688 441.960938 686.257812 437.9375 678.652344 435.546875 C 675.003906 434.402344 672.527344 431.023438 672.527344 427.199219 L 672.527344 410.636719 L 651.824219 410.636719 L 651.824219 427.199219 C 651.824219 431.023438 649.339844 434.402344 645.699219 435.546875 C 638.097656 437.9375 631.175781 441.960938 625.128906 447.507812 C 622.304688 450.089844 618.136719 450.542969 614.839844 448.636719 L 600.429688 440.316406 L 590.078125 458.246094 L 604.453125 466.539062 C 607.761719 468.445312 609.449219 472.289062 608.617188 476.015625 C 607.734375 480.003906 607.289062 484.011719 607.289062 487.914062 C 607.289062 491.816406 607.734375 495.824219 608.617188 499.816406 C 609.449219 503.542969 607.761719 507.382812 604.453125 509.292969 L 590.078125 517.585938 L 600.429688 535.515625 L 614.839844 527.195312 C 618.136719 525.277344 622.304688 525.734375 625.128906 528.324219 C 631.175781 533.871094 638.097656 537.894531 645.699219 540.285156 C 649.347656 541.429688 651.824219 544.816406 651.824219 548.632812 Z M 662.175781 522.878906 C 642.890625 522.878906 627.203125 507.191406 627.203125 487.90625 C 627.203125 468.621094 642.890625 452.933594 662.175781 452.933594 C 681.460938 452.933594 697.152344 468.621094 697.152344 487.90625 C 697.152344 507.191406 681.460938 522.878906 662.175781 522.878906 Z M 662.175781 470.433594 C 652.542969 470.433594 644.703125 478.273438 644.703125 487.90625 C 644.703125 497.539062 652.542969 505.378906 662.175781 505.378906 C 671.808594 505.378906 679.652344 497.539062 679.652344 487.90625 C 679.652344 478.273438 671.808594 470.433594 662.175781 470.433594 Z M 662.175781 470.433594 " fill-opacity="1" fill-rule="nonzero"/><path fill="#f6f6f6" d="M 218.195312 357.585938 L 179.984375 357.585938 C 175.152344 357.585938 171.234375 353.664062 171.234375 348.835938 L 171.234375 329.636719 C 165.527344 327.25 160.15625 324.132812 155.195312 320.308594 L 138.507812 329.945312 C 134.308594 332.351562 128.972656 330.925781 126.558594 326.742188 L 107.457031 293.65625 C 105.039062 289.476562 106.476562 284.121094 110.660156 281.707031 L 127.308594 272.089844 C 126.898438 268.972656 126.6875 265.867188 126.6875 262.804688 C 126.6875 259.742188 126.898438 256.636719 127.308594 253.523438 L 110.660156 243.90625 C 108.65625 242.742188 107.183594 240.835938 106.582031 238.59375 C 105.976562 236.355469 106.292969 233.964844 107.457031 231.953125 L 126.558594 198.859375 C 127.722656 196.855469 129.628906 195.386719 131.867188 194.785156 C 134.089844 194.171875 136.488281 194.496094 138.507812 195.660156 L 155.195312 205.292969 C 160.164062 201.46875 165.527344 198.351562 171.234375 195.964844 L 171.234375 176.757812 C 171.234375 171.929688 175.152344 168.007812 179.984375 168.007812 L 218.195312 168.007812 C 223.023438 168.007812 226.945312 171.929688 226.945312 176.757812 L 226.945312 195.964844 C 232.648438 198.34375 238.015625 201.46875 242.984375 205.292969 L 259.671875 195.660156 C 261.683594 194.496094 264.082031 194.179688 266.3125 194.785156 C 268.550781 195.378906 270.46875 196.847656 271.621094 198.859375 L 290.722656 231.953125 C 291.878906 233.964844 292.195312 236.355469 291.597656 238.59375 C 291.003906 240.835938 289.535156 242.75 287.519531 243.90625 L 270.871094 253.523438 C 271.28125 256.636719 271.492188 259.734375 271.492188 262.804688 C 271.492188 265.875 271.28125 268.972656 270.871094 272.089844 L 287.519531 281.707031 C 291.710938 284.121094 293.136719 289.476562 290.722656 293.65625 L 271.621094 326.742188 C 269.199219 330.925781 263.859375 332.351562 259.671875 329.945312 L 242.984375 320.308594 C 238.015625 324.132812 232.648438 327.25 226.945312 329.636719 L 226.945312 348.835938 C 226.945312 353.664062 223.023438 357.585938 218.195312 357.585938 Z M 188.734375 340.085938 L 209.445312 340.085938 L 209.445312 323.519531 C 209.445312 319.699219 211.921875 316.320312 215.570312 315.175781 C 223.175781 312.785156 230.09375 308.761719 236.140625 303.210938 C 238.957031 300.621094 243.125 300.167969 246.429688 302.085938 L 260.84375 310.40625 L 271.195312 292.476562 L 256.816406 284.179688 C 253.511719 282.273438 251.832031 278.441406 252.644531 274.714844 C 253.535156 270.707031 253.984375 266.691406 253.984375 262.804688 C 253.984375 258.921875 253.535156 254.902344 252.644531 250.898438 C 251.820312 247.167969 253.511719 243.335938 256.816406 241.429688 L 271.195312 233.132812 L 260.84375 215.207031 L 246.429688 223.527344 C 243.125 225.433594 238.957031 224.980469 236.140625 222.398438 C 230.09375 216.851562 223.175781 212.824219 215.570312 210.4375 C 211.921875 209.289062 209.445312 205.914062 209.445312 202.089844 L 209.445312 185.527344 L 188.734375 185.527344 L 188.734375 202.089844 C 188.734375 205.914062 186.25 209.289062 182.609375 210.4375 C 175.003906 212.816406 168.085938 216.84375 162.039062 222.398438 C 159.210938 224.988281 155.046875 225.433594 151.75 223.527344 L 137.335938 215.207031 L 126.984375 233.132812 L 141.363281 241.429688 C 144.667969 243.335938 146.347656 247.167969 145.535156 250.898438 C 144.644531 254.902344 144.195312 258.921875 144.195312 262.804688 C 144.195312 266.691406 144.644531 270.707031 145.535156 274.714844 C 146.359375 278.441406 144.667969 282.273438 141.363281 284.179688 L 126.984375 292.476562 L 137.335938 310.40625 L 151.75 302.085938 C 155.046875 300.183594 159.21875 300.621094 162.039062 303.210938 C 168.085938 308.761719 175.003906 312.785156 182.609375 315.175781 C 186.257812 316.320312 188.734375 319.707031 188.734375 323.519531 Z M 199.085938 297.769531 C 179.800781 297.769531 164.113281 282.082031 164.113281 262.796875 C 164.113281 243.511719 179.800781 227.824219 199.085938 227.824219 C 218.371094 227.824219 234.066406 243.511719 234.066406 262.796875 C 234.066406 282.082031 218.378906 297.769531 199.085938 297.769531 Z M 199.085938 245.324219 C 189.453125 245.324219 181.613281 253.164062 181.613281 262.796875 C 181.613281 272.429688 189.453125 280.269531 199.085938 280.269531 C 208.71875 280.269531 216.566406 272.429688 216.566406 262.796875 C 216.566406 253.164062 208.726562 245.324219 199.085938 245.324219 Z M 199.085938 245.324219 " fill-opacity="1" fill-rule="nonzero"/><path fill="#f6f6f6" d="M 372.273438 417.566406 C 368.90625 417.566406 365.691406 415.605469 364.25 412.324219 L 359.21875 400.835938 C 355.5 400.808594 351.824219 400.417969 348.226562 399.644531 L 340.816406 409.71875 C 337.957031 413.609375 332.488281 414.460938 328.585938 411.582031 L 306.070312 395.015625 C 304.207031 393.644531 302.957031 391.578125 302.605469 389.285156 C 302.257812 386.992188 302.832031 384.65625 304.207031 382.785156 L 311.617188 372.714844 C 309.816406 369.503906 308.347656 366.117188 307.21875 362.574219 L 294.75 361.179688 C 289.945312 360.648438 286.488281 356.324219 287.023438 351.519531 L 290.109375 323.75 C 290.363281 321.4375 291.527344 319.332031 293.339844 317.886719 C 295.152344 316.441406 297.453125 315.734375 299.769531 316.023438 L 312.203125 317.40625 C 313.148438 315.796875 314.171875 314.246094 315.257812 312.777344 C 316.34375 311.304688 317.507812 309.878906 318.757812 308.496094 L 313.734375 297.027344 C 312.808594 294.898438 312.757812 292.492188 313.597656 290.332031 C 314.445312 288.171875 316.117188 286.429688 318.234375 285.503906 L 343.835938 274.292969 C 348.273438 272.359375 353.425781 274.382812 355.359375 278.800781 L 360.390625 290.289062 C 364.109375 290.316406 367.777344 290.710938 371.378906 291.480469 L 378.792969 281.40625 C 380.164062 279.542969 382.230469 278.292969 384.523438 277.941406 C 386.789062 277.601562 389.152344 278.171875 391.023438 279.542969 L 413.539062 296.109375 C 415.402344 297.480469 416.652344 299.546875 417.003906 301.839844 C 417.351562 304.132812 416.777344 306.46875 415.402344 308.339844 L 407.992188 318.410156 C 409.792969 321.621094 411.261719 325 412.390625 328.542969 L 424.859375 329.933594 C 427.171875 330.1875 429.28125 331.351562 430.722656 333.164062 C 432.175781 334.976562 432.839844 337.285156 432.585938 339.59375 L 429.496094 367.367188 C 428.964844 372.171875 424.597656 375.664062 419.839844 375.09375 L 407.394531 373.710938 C 406.460938 375.3125 405.4375 376.851562 404.359375 378.332031 C 404.359375 378.332031 404.359375 378.332031 404.359375 378.339844 C 403.273438 379.808594 402.101562 381.246094 400.859375 382.617188 L 405.882812 394.082031 C 407.824219 398.507812 405.804688 403.671875 401.375 405.605469 L 375.78125 416.824219 C 374.636719 417.320312 373.445312 417.558594 372.273438 417.558594 Z M 364.816406 383.046875 C 368.265625 383.046875 371.425781 385.078125 372.832031 388.289062 L 376.78125 397.285156 L 386.351562 393.09375 L 382.421875 384.125 C 380.890625 380.625 381.800781 376.539062 384.679688 374.027344 C 386.796875 372.179688 388.6875 370.140625 390.28125 367.980469 C 391.882812 365.800781 393.265625 363.402344 394.402344 360.824219 C 395.941406 357.332031 399.597656 355.238281 403.371094 355.667969 L 413.101562 356.746094 L 414.253906 346.359375 L 404.492188 345.273438 C 400.691406 344.855469 397.605469 342.019531 396.871094 338.265625 C 395.777344 332.71875 393.589844 327.660156 390.34375 323.234375 C 388.085938 320.144531 388.09375 315.953125 390.351562 312.871094 L 396.144531 305.015625 L 387.726562 298.820312 L 381.941406 306.6875 C 379.675781 309.765625 375.667969 311.007812 372.054688 309.773438 C 366.867188 307.988281 361.386719 307.402344 355.761719 308.015625 C 351.964844 308.382812 348.332031 306.328125 346.800781 302.828125 L 342.863281 293.824219 L 333.292969 298.015625 L 337.222656 306.984375 C 338.753906 310.476562 337.84375 314.5625 334.972656 317.082031 C 332.835938 318.953125 330.957031 320.992188 329.363281 323.144531 C 327.769531 325.304688 326.386719 327.703125 325.242188 330.300781 C 323.695312 333.792969 320.160156 335.921875 316.273438 335.457031 L 306.542969 334.371094 L 305.386719 344.757812 L 315.152344 345.851562 C 318.949219 346.269531 322.03125 349.113281 322.773438 352.859375 C 323.867188 358.40625 326.054688 363.464844 329.300781 367.890625 C 331.558594 370.980469 331.558594 375.171875 329.300781 378.253906 L 323.507812 386.109375 L 331.925781 392.304688 L 337.710938 384.4375 C 339.976562 381.359375 343.992188 380.117188 347.597656 381.339844 C 352.777344 383.125 358.253906 383.703125 363.882812 383.101562 C 364.195312 383.066406 364.511719 383.046875 364.828125 383.046875 Z M 397.316406 373.152344 Z M 359.753906 373.5 C 353.847656 373.5 348.105469 371.628906 343.257812 368.058594 C 330.859375 358.933594 328.191406 341.40625 337.308594 329.007812 C 346.445312 316.601562 363.960938 313.949219 376.367188 323.058594 C 382.378906 327.476562 386.308594 333.976562 387.429688 341.355469 C 388.546875 348.730469 386.738281 356.105469 382.308594 362.117188 C 377.890625 368.128906 371.398438 372.058594 364.023438 373.175781 C 362.597656 373.394531 361.167969 373.5 359.761719 373.5 Z M 353.628906 353.960938 C 355.867188 355.609375 358.605469 356.273438 361.378906 355.871094 C 364.136719 355.449219 366.558594 353.988281 368.214844 351.738281 C 369.867188 349.492188 370.550781 346.734375 370.128906 343.988281 C 369.710938 341.230469 368.25 338.808594 366 337.152344 C 361.363281 333.734375 354.824219 334.730469 351.414062 339.367188 C 348.007812 343.996094 349.007812 350.542969 353.636719 353.953125 Z M 353.628906 353.960938 " fill-opacity="1" fill-rule="nonzero"/></svg>