<svg xmlns="http://www.w3.org/2000/svg" xmlns:xlink="http://www.w3.org/1999/xlink" width="1080" zoomAndPan="magnify" viewBox="0 0 810 809.999993" height="1080" preserveAspectRatio="xMidYMid meet" version="1.0"><defs><clipPath id="96c628ef01"><path d="M 123 33 L 752 33 L 752 657 L 123 657 Z M 123 33 " clip-rule="nonzero"/></clipPath><clipPath id="d562b747bf"><path d="M 0 229.613281 L 551.015625 -15.3125 L 787.109375 515.828125 L 236.09375 760.757812 Z M 0 229.613281 " clip-rule="nonzero"/></clipPath><clipPath id="e9487ce3f9"><path d="M 0 229.613281 L 551.015625 -15.3125 L 787.109375 515.828125 L 236.09375 760.757812 Z M 0 229.613281 " clip-rule="nonzero"/></clipPath></defs><g clip-path="url(#96c628ef01)"><g clip-path="url(#d562b747bf)"><g clip-path="url(#e9487ce3f9)"><path fill="#f6f6f6" d="M 707.296875 531.410156 C 685.066406 541.292969 658.929688 531.242188 649.042969 509 C 645.90625 501.941406 644.671875 494.160156 645.464844 486.519531 C 645.5 486.257812 645.515625 485.992188 645.53125 485.722656 L 647.023438 395.613281 L 716.601562 456.328125 C 722.46875 461.292969 726.339844 465.609375 729.6875 473.148438 C 739.578125 495.390625 729.539062 521.523438 707.296875 531.410156 Z M 732.4375 445.902344 C 731.15625 444.6875 729.820312 443.519531 728.472656 442.421875 L 648.957031 373.042969 C 641.234375 366.3125 629.152344 371.675781 628.984375 381.921875 L 627.261719 485.03125 C 626.203125 495.710938 627.964844 506.554688 632.351562 516.417969 C 646.332031 547.867188 683.28125 562.082031 714.722656 548.109375 C 746.171875 534.128906 760.371094 497.175781 746.390625 465.722656 C 743.074219 458.265625 738.414062 451.628906 732.554688 446.007812 C 732.515625 445.976562 732.472656 445.9375 732.4375 445.902344 Z M 677.363281 313.878906 C 678.144531 315.636719 677.34375 317.695312 675.585938 318.476562 L 570.472656 365.203125 C 568.714844 365.984375 566.660156 365.195312 565.878906 363.4375 L 553.308594 335.15625 C 550.972656 329.902344 553.339844 323.726562 558.59375 321.390625 L 651.03125 280.300781 C 656.285156 277.964844 662.453125 280.34375 664.792969 285.597656 Z M 528.449219 253.390625 L 339.378906 337.4375 L 318.3125 290.046875 L 345.769531 277.839844 C 359.183594 271.878906 368.238281 260.160156 370.621094 245.65625 L 374.378906 222.804688 C 375.710938 214.75 380.351562 208.734375 387.8125 205.417969 L 423.367188 189.613281 C 430.824219 186.296875 438.394531 186.882812 445.261719 191.296875 L 464.757812 203.808594 C 477.109375 211.765625 491.886719 212.886719 505.289062 206.929688 L 557.367188 183.78125 C 568.320312 178.910156 581.183594 183.859375 586.050781 194.8125 L 621.085938 273.621094 L 573.695312 294.6875 L 560.878906 265.859375 C 555.378906 253.484375 540.824219 247.890625 528.449219 253.390625 Z M 411.222656 332.765625 C 409.308594 331.398438 408.019531 329.371094 407.566406 327.117188 L 366.863281 345.210938 C 395.417969 356.359375 418.992188 378.367188 431.785156 407.148438 C 458.183594 466.535156 431.347656 536.324219 371.960938 562.722656 C 312.582031 589.121094 242.792969 562.28125 216.390625 502.898438 C 199.730469 465.417969 203.832031 422.035156 226.890625 388.378906 L 212.070312 355.042969 C 208.421875 359.132812 204.996094 363.417969 201.824219 367.878906 C 200.007812 370.429688 197.007812 371.871094 193.894531 371.707031 L 157.214844 369.761719 L 143.085938 406.507812 L 171.621094 429.644531 C 174.050781 431.625 175.300781 434.691406 174.941406 437.800781 C 173.308594 451.84375 173.664062 465.992188 176 479.871094 C 176.523438 482.960938 175.425781 486.082031 173.101562 488.1875 L 145.808594 512.730469 L 161.800781 548.714844 L 198.3125 544.894531 C 201.425781 544.5625 204.484375 545.855469 206.425781 548.3125 C 215.164062 559.347656 225.441406 569.101562 236.941406 577.273438 C 239.492188 579.085938 240.9375 582.085938 240.773438 585.210938 L 238.832031 621.886719 L 275.582031 636.03125 L 298.710938 607.496094 C 300.683594 605.058594 303.753906 603.8125 306.859375 604.167969 C 320.90625 605.800781 335.074219 605.449219 348.9375 603.113281 C 352.019531 602.582031 355.148438 603.6875 357.246094 606.003906 L 381.792969 633.308594 L 417.777344 617.3125 L 413.953125 580.796875 C 413.625 577.691406 414.914062 574.621094 417.371094 572.679688 C 428.410156 563.949219 438.15625 553.675781 446.335938 542.164062 C 448.152344 539.621094 451.148438 538.171875 454.28125 538.339844 L 490.953125 540.292969 L 505.089844 503.527344 L 476.554688 480.398438 C 474.121094 478.429688 472.867188 475.347656 473.222656 472.242188 C 474.863281 458.210938 474.503906 444.0625 472.175781 430.179688 C 471.644531 427.09375 472.742188 423.953125 475.066406 421.867188 L 502.371094 397.320312 L 486.375 361.339844 L 449.859375 365.160156 C 446.746094 365.476562 443.6875 364.199219 441.746094 361.742188 C 433.003906 350.707031 422.738281 340.949219 411.222656 332.765625 Z M 210.691406 294.929688 L 281.207031 263.582031 C 283.628906 262.507812 286.582031 263.636719 287.65625 266.058594 L 336.644531 376.261719 C 337.726562 378.691406 336.585938 381.644531 334.167969 382.722656 L 263.652344 414.070312 C 261.238281 415.140625 258.28125 414.003906 257.203125 411.578125 L 208.214844 301.371094 C 207.140625 298.953125 208.277344 296 210.691406 294.929688 Z M 271.078125 430.769531 C 259.414062 435.953125 245.695312 430.679688 240.503906 419 L 235.933594 408.714844 C 221.914062 435.421875 220.617188 467.414062 233.09375 495.472656 C 255.398438 545.652344 314.367188 568.328125 364.539062 546.023438 C 414.714844 523.71875 437.390625 464.75 415.085938 414.574219 C 402.613281 386.511719 377.992188 366.039062 348.769531 358.558594 L 353.339844 368.84375 C 358.53125 380.519531 353.257812 394.238281 341.59375 399.421875 Z M 290.265625 162.058594 C 280.730469 166.292969 269.523438 161.984375 265.285156 152.453125 C 261.050781 142.925781 265.359375 131.710938 274.890625 127.472656 C 284.429688 123.234375 295.628906 127.558594 299.863281 137.082031 C 304.097656 146.613281 299.804688 157.816406 290.265625 162.058594 Z M 441.15625 53.566406 C 450.679688 49.332031 461.894531 53.648438 466.125 63.171875 C 470.363281 72.707031 466.054688 83.914062 456.527344 88.148438 C 446.996094 92.382812 435.789062 88.074219 431.550781 78.542969 C 427.316406 69.015625 431.625 57.800781 441.15625 53.566406 Z M 643.609375 263.605469 L 637.785156 266.195312 L 602.75 187.386719 C 593.789062 167.226562 570.101562 158.117188 549.941406 167.078125 L 497.863281 190.230469 C 489.964844 193.742188 481.921875 193.128906 474.636719 188.449219 L 455.140625 175.917969 C 443.203125 168.242188 428.914062 167.144531 415.941406 172.910156 L 406.515625 177.101562 L 377.773438 112.445312 L 419.609375 93.847656 C 429.878906 106.90625 448.09375 111.894531 463.949219 104.847656 C 482.699219 96.511719 491.160156 74.496094 482.824219 55.746094 C 474.496094 37.015625 452.480469 28.535156 433.734375 36.871094 C 417.867188 43.921875 409.371094 60.773438 412.183594 77.148438 L 311.8125 121.765625 C 301.542969 108.707031 283.332031 103.726562 267.46875 110.78125 C 248.726562 119.109375 240.257812 141.140625 248.585938 159.875 C 256.917969 178.621094 278.945312 187.085938 297.683594 178.753906 C 313.550781 171.703125 322.035156 154.847656 319.238281 138.464844 L 361.074219 119.871094 L 389.8125 184.523438 L 380.386719 188.714844 C 367.402344 194.488281 358.640625 205.828125 356.335938 219.835938 L 352.582031 242.703125 C 351.179688 251.246094 346.253906 257.621094 338.339844 261.136719 L 310.886719 273.34375 L 304.347656 258.632812 C 299.164062 246.972656 285.445312 241.695312 273.78125 246.878906 L 203.265625 278.226562 C 191.601562 283.410156 186.328125 297.128906 191.511719 308.792969 L 204.011719 336.910156 C 198.980469 342.019531 194.269531 347.472656 189.9375 353.199219 L 151.550781 351.15625 C 147.601562 350.957031 143.957031 353.316406 142.539062 357.007812 L 123.644531 406.148438 C 122.21875 409.847656 123.335938 414.027344 126.417969 416.523438 L 156.277344 440.734375 C 155.207031 453.140625 155.53125 465.601562 157.207031 477.886719 L 128.648438 503.582031 C 125.707031 506.230469 124.800781 510.464844 126.40625 514.082031 L 147.796875 562.199219 C 149.40625 565.820312 153.15625 567.984375 157.089844 567.570312 L 195.300781 563.574219 C 203.300781 573.070312 212.34375 581.652344 222.265625 589.171875 L 220.230469 627.558594 C 220.011719 631.503906 222.375 635.148438 226.070312 636.570312 L 275.214844 655.464844 C 278.902344 656.882812 283.097656 655.761719 285.585938 652.683594 L 309.796875 622.832031 C 322.199219 623.894531 334.660156 623.589844 346.949219 621.902344 L 372.644531 650.460938 C 375.289062 653.40625 379.527344 654.304688 383.148438 652.691406 L 431.257812 631.304688 C 434.882812 629.695312 437.042969 625.953125 436.640625 622.015625 L 432.648438 583.789062 C 442.144531 575.792969 450.714844 566.757812 458.234375 556.84375 L 496.613281 558.875 C 500.566406 559.089844 504.210938 556.730469 505.636719 553.035156 L 524.527344 503.898438 C 525.941406 500.199219 524.824219 496.003906 521.75 493.519531 L 491.898438 469.3125 C 492.964844 456.90625 492.652344 444.441406 490.960938 432.144531 L 519.523438 406.453125 C 522.46875 403.8125 523.371094 399.582031 521.757812 395.957031 L 500.371094 347.84375 C 498.761719 344.226562 495.019531 342.058594 491.082031 342.46875 L 452.855469 346.460938 C 444.859375 336.964844 435.824219 328.394531 425.910156 320.871094 L 426.011719 318.914062 L 535.871094 270.078125 C 539.035156 268.671875 542.777344 270.109375 544.183594 273.277344 L 557 302.105469 L 551.175781 304.691406 C 536.710938 311.121094 530.179688 328.113281 536.605469 342.574219 L 549.179688 370.855469 C 554.054688 381.820312 566.929688 386.773438 577.894531 381.898438 L 683.007812 335.171875 C 693.972656 330.296875 698.941406 317.417969 694.066406 306.449219 L 681.492188 278.167969 C 675.0625 263.710938 658.074219 257.179688 643.609375 263.605469 Z M 643.609375 263.605469 " fill-opacity="1" fill-rule="evenodd"/></g></g></g></svg>